<?xml version="1.0" encoding="UTF-8" standalone="no"?>
<!-- Created with Inkscape (http://www.inkscape.org/) -->

<svg
   xmlns:dc="http://purl.org/dc/elements/1.1/"
   xmlns:cc="http://creativecommons.org/ns#"
   xmlns:rdf="http://www.w3.org/1999/02/22-rdf-syntax-ns#"
   xmlns:svg="http://www.w3.org/2000/svg"
   xmlns="http://www.w3.org/2000/svg"
   xmlns:sodipodi="http://sodipodi.sourceforge.net/DTD/sodipodi-0.dtd"
   xmlns:inkscape="http://www.inkscape.org/namespaces/inkscape"
   sodipodi:docname="cubing.svg"
   inkscape:version="0.48.4 r9939"
   version="1.1"
   id="svg5185"
   height="240"
   width="640">
  <sodipodi:namedview
     id="base"
     pagecolor="#000000"
     bordercolor="#666666"
     borderopacity="1.0"
     inkscape:pageopacity="0"
     inkscape:pageshadow="2"
     inkscape:zoom="0.7"
     inkscape:cx="72.257836"
     inkscape:cy="248.95778"
     inkscape:document-units="px"
     inkscape:current-layer="layer1"
     showgrid="true"
     inkscape:window-width="1600"
     inkscape:window-height="1138"
     inkscape:window-x="-8"
     inkscape:window-y="-8"
     inkscape:window-maximized="1">
    <inkscape:grid
       type="xygrid"
       id="grid5193"
       empspacing="5"
       visible="true"
       enabled="true"
       snapvisiblegridlinesonly="true"
       spacingx="8px"
       spacingy="8px" />
  </sodipodi:namedview>
  <defs
     id="defs5187">
    <marker
       inkscape:stockid="Arrow1Mend"
       orient="auto"
       refY="0"
       refX="0"
       id="Arrow1Mend"
       style="overflow:visible">
      <path
         inkscape:connector-curvature="0"
         id="path5943"
         d="M 0,0 5,-5 -12.5,0 5,5 0,0 z"
         style="fill-rule:evenodd;stroke:#000000;stroke-width:1pt"
         transform="matrix(-0.4,0,0,-0.4,-4,0)" />
    </marker>
    <marker
       inkscape:stockid="Arrow1Mendp"
       orient="auto"
       refY="0"
       refX="0"
       id="Arrow1Mendp"
       style="overflow:visible">
      <path
         inkscape:connector-curvature="0"
         id="path6477"
         d="M 0,0 5,-5 -12.5,0 5,5 0,0 z"
         style="fill:#009ce4;fill-rule:evenodd;stroke:#009ce4;stroke-width:1pt"
         transform="matrix(-0.4,0,0,-0.4,-4,0)" />
    </marker>
  </defs>
  <metadata
     id="metadata5190">
    <rdf:RDF>
      <cc:Work
         rdf:about="">
        <dc:format>image/svg+xml</dc:format>
        <dc:type
           rdf:resource="http://purl.org/dc/dcmitype/StillImage" />
        <dc:title />
      </cc:Work>
    </rdf:RDF>
  </metadata>
  <g
     inkscape:label="Layer 1"
     inkscape:groupmode="layer"
     id="layer1"
     transform="translate(0,-812.36218)">
    <g
       id="g5787"
       transform="matrix(2,0,0,2,-545.44587,11.245066)"
       style="fill:#009828;fill-opacity:1">
      <g
         id="content"
         transform="matrix(0.28571429,0,0,-0.28571429,-50,562.5)"
         xml:space="preserve"
         stroke-miterlimit="10.433"
         font-style="normal"
         font-variant="normal"
         font-weight="normal"
         font-stretch="normal"
         font-size-adjust="none"
         letter-spacing="normal"
         word-spacing="normal"
         style="font-style:normal;font-variant:normal;font-weight:normal;font-stretch:normal;letter-spacing:normal;word-spacing:normal;text-anchor:start;fill:#009828;fill-opacity:1;stroke:#000000;stroke-linecap:butt;stroke-linejoin:miter;stroke-miterlimit:10.43299961;stroke-opacity:1;stroke-dasharray:none;stroke-dashoffset:0"><path
           d="m 1196.8,361.49 0.1,0.13 0,0.15 0,0.16 0.1,0.18 0,0.2 0.1,0.2 0.1,0.22 0,0.22 0.1,0.24 0.1,0.24 0.1,0.24 0.1,0.25 0.1,0.25 0.1,0.25 0.2,0.25 0.1,0.24 0.2,0.24 0.1,0.24 0.2,0.23 0.2,0.23 0.1,0.21 0.2,0.2 0.3,0.19 0.2,0.18 0.2,0.16 0.3,0.14 0.1,0.07 0.1,0.06 0.1,0.05 0.2,0.05 0.1,0.05 0.2,0.04 0.1,0.03 0.2,0.03 0.1,0.02 0.2,0.02 0.1,0.01 0.2,0 c 0.2,0 1.4,0 2.5,-0.64 -1.4,-0.25 -2.4,-1.5 -2.4,-2.68 0,-0.8 0.5,-1.75 1.9,-1.75 1.1,0 2.6,0.89 2.6,2.89 0,2.59 -2.9,3.28 -4.6,3.28 -2.9,0 -4.6,-2.64 -5.2,-3.78 -1.3,3.28 -3.9,3.78 -5.4,3.78 -5.2,0 -8,-6.42 -8,-7.67 0,-0.5 0.5,-0.5 0.6,-0.5 0.4,0 0.5,0.1 0.6,0.54 1.7,5.28 5,6.53 6.7,6.53 1,0 2.7,-0.43 2.7,-3.32 0,-1.55 -0.9,-4.9 -2.7,-11.86 -0.8,-3.1 -2.5,-5.19 -4.7,-5.19 -0.3,0 -1.5,0 -2.5,0.65 1.2,0.24 2.3,1.29 2.3,2.69 0,1.35 -1.1,1.74 -1.8,1.74 -1.5,0 -2.8,-1.3 -2.8,-2.89 0,-2.29 2.5,-3.29 4.7,-3.29 3.3,0 5.1,3.49 5.3,3.79 0.6,-1.85 2.3,-3.79 5.3,-3.79 5.2,0 8,6.43 8,7.68 0,0.5 -0.4,0.5 -0.6,0.5 -0.4,0 -0.5,-0.21 -0.6,-0.55 -1.7,-5.33 -5.1,-6.53 -6.7,-6.53 -1.9,0 -2.7,1.59 -2.7,3.3 0,1.09 0.3,2.18 0.9,4.37 z"
           id="path5790"
           inkscape:connector-curvature="0"
           style="fill:#009828;fill-opacity:1;stroke-width:0" /><path
           d="m 1256.8,362.74 0.1,0 0.2,0 0.1,0 0.1,0.01 0.1,0 0,0.01 0.1,0.01 0.1,0.01 0,0.01 0.1,0.01 0.1,0.02 0,0.02 0.1,0.02 0.1,0.03 0,0.02 0.1,0.03 0,0.04 0.1,0.04 0,0.04 0.1,0.04 0,0.05 0,0.03 0.1,0.03 0,0.03 0,0.03 0,0.03 0,0.03 0,0.03 0,0.04 0,0.03 0.1,0.04 0,0.04 0,0.04 0,0.04 0,0.04 0,0.05 0,0.04 c 0,1 -1,1 -1.7,1 H 1227 c -0.7,0 -1.6,0 -1.6,-1 0,-0.98 0.9,-0.98 1.6,-0.98 z"
           id="path5792"
           inkscape:connector-curvature="0"
           style="fill:#009828;fill-opacity:1;stroke-width:0" /><path
           d="m 1256.8,353.07 0.1,0 0.1,0 0.1,0 0.1,0 0.1,0.01 0.1,0 0.1,0.01 0,0.01 0.1,0.01 0.1,0.01 0,0.01 0.1,0.02 0.1,0.02 0,0.02 0.1,0.03 0,0.02 0.1,0.04 0,0.03 0.1,0.04 0,0.04 0.1,0.05 0,0.02 0,0.03 0,0.02 0.1,0.03 0,0.03 0,0.03 0,0.03 0,0.04 0,0.03 0,0.04 0,0.03 0.1,0.04 0,0.04 0,0.04 0,0.04 0,0.05 0,0.04 0,0.05 c 0,1 -1,1 -1.7,1 H 1227 c -0.7,0 -1.6,0 -1.6,-1 0,-1 0.9,-1 1.6,-1 z"
           id="path5794"
           inkscape:connector-curvature="0"
           style="fill:#009828;fill-opacity:1;stroke-width:0" /><path
           d="m 1289.8,354.66 v -4.33 c 0,-1.79 -0.1,-2.34 -3.8,-2.34 h -1.1 v -1.55 c 2.1,0.16 4.7,0.16 6.8,0.16 2.1,0 4.7,0 6.7,-0.16 v 1.55 h -1 c -3.7,0 -3.8,0.55 -3.8,2.34 v 4.33 h 5 v 1.55 h -5 v 22.67 c 0,1 0,1.3 -0.8,1.3 -0.5,0 -0.6,0 -1,-0.61 l -15.3,-23.36 h 1.4 l 12.2,18.58 v -18.58 h -12.2 -1.4 v -1.55 z"
           id="path5796"
           inkscape:connector-curvature="0"
           style="fill:#009828;fill-opacity:1;stroke-width:0" /></g>    </g>
    <path
       sodipodi:nodetypes="cc"
       style="fill:none;stroke:#009828;stroke-width:2;stroke-linecap:round;stroke-linejoin:miter;stroke-miterlimit:4;stroke-opacity:1;stroke-dasharray:none"
       d="m 72,852.36218 -16,0"
       id="path5916"
       inkscape:connector-curvature="0" />
    <path
       style="fill:none;stroke:#009828;stroke-width:2;stroke-linecap:round;stroke-linejoin:miter;stroke-miterlimit:4;stroke-opacity:1;stroke-dasharray:none"
       d="m 64,852.36218 0,64"
       id="path5918"
       inkscape:connector-curvature="0" />
    <path
       style="fill:none;stroke:#009828;stroke-width:2;stroke-linecap:round;stroke-linejoin:miter;stroke-miterlimit:4;stroke-opacity:1;stroke-dasharray:none"
       d="m 64,948.36218 0,64.00002"
       id="path5920"
       inkscape:connector-curvature="0" />
    <path
       sodipodi:nodetypes="cc"
       style="fill:none;stroke:#009828;stroke-width:2;stroke-linecap:round;stroke-linejoin:miter;stroke-miterlimit:4;stroke-opacity:1;stroke-dasharray:none"
       d="m 72,1012.3622 -16,0"
       id="path5922"
       inkscape:connector-curvature="0" />
    <path
       style="fill:none;stroke:#009ce4;stroke-width:2;stroke-linecap:round;stroke-linejoin:miter;stroke-miterlimit:4;stroke-opacity:1;stroke-dasharray:none;marker-end:url(#Arrow1Mendp)"
       d="m 176,932.36218 88,0"
       id="path5928"
       inkscape:connector-curvature="0" />
    <g
       style="fill:#009828;fill-opacity:1"
       transform="matrix(2,0,0,2,-249.27526,120.94003)"
       id="g6622">
      <g
         style="font-style:normal;font-variant:normal;font-weight:normal;font-stretch:normal;letter-spacing:normal;word-spacing:normal;text-anchor:start;fill:#009828;fill-opacity:1;stroke:#000000;stroke-linecap:butt;stroke-linejoin:miter;stroke-miterlimit:10.43299961;stroke-opacity:1;stroke-dasharray:none;stroke-dashoffset:0"
         word-spacing="normal"
         letter-spacing="normal"
         font-size-adjust="none"
         font-stretch="normal"
         font-weight="normal"
         font-variant="normal"
         font-style="normal"
         stroke-miterlimit="10.433"
         xml:space="preserve"
         transform="matrix(0.28571429,0,0,-0.28571429,-50,562.5)"
         id="g6624"><path
           style="fill:#009828;fill-opacity:1;stroke-width:0"
           inkscape:connector-curvature="0"
           id="path6626"
           d="m 1242.4,354.66 v -4.33 c 0,-1.79 -0.1,-2.34 -3.8,-2.34 h -1.1 v -1.55 c 2.1,0.16 4.7,0.16 6.8,0.16 2.1,0 4.7,0 6.7,-0.16 v 1.55 h -1 c -3.7,0 -3.8,0.55 -3.8,2.34 v 4.33 h 5 v 1.55 h -5 v 22.67 c 0,1 0,1.3 -0.8,1.3 -0.5,0 -0.6,0 -1,-0.61 l -15.3,-23.36 h 1.4 l 12.2,18.58 v -18.58 h -12.2 -1.4 v -1.55 z" /></g>    </g>
    <path
       inkscape:connector-curvature="0"
       id="path6819"
       d="m 280,1032.3622 0,16"
       style="fill:none;stroke:#009828;stroke-width:2;stroke-linecap:round;stroke-linejoin:miter;stroke-miterlimit:4;stroke-opacity:1;stroke-dasharray:none"
       sodipodi:nodetypes="cc" />
    <path
       inkscape:connector-curvature="0"
       id="path6821"
       d="m 280,1040.3622 64,0"
       style="fill:none;stroke:#009828;stroke-width:2;stroke-linecap:round;stroke-linejoin:miter;stroke-miterlimit:4;stroke-opacity:1;stroke-dasharray:none" />
    <path
       inkscape:connector-curvature="0"
       id="path6823"
       d="m 376,1040.3622 64,0"
       style="fill:none;stroke:#009828;stroke-width:2;stroke-linecap:round;stroke-linejoin:miter;stroke-miterlimit:4;stroke-opacity:1;stroke-dasharray:none" />
    <path
       inkscape:connector-curvature="0"
       id="path6825"
       d="m 440,1032.3622 0,16"
       style="fill:none;stroke:#009828;stroke-width:2;stroke-linecap:round;stroke-linejoin:miter;stroke-miterlimit:4;stroke-opacity:1;stroke-dasharray:none"
       sodipodi:nodetypes="cc" />
    <path
       inkscape:connector-curvature="0"
       id="path7285"
       d="m 280,860.36218 0,160.00002 160,0 0,-160.00002 z"
       style="fill:#ffd105;fill-opacity:0.19607843;stroke:#eec819;stroke-width:1px;stroke-linecap:butt;stroke-linejoin:round;stroke-opacity:1" />
    <path
       inkscape:connector-curvature="0"
       id="path7265"
       d="m 104,852.36218 0,160.00002 40,0 0,-160.00002 z"
       style="fill:#ffd305;fill-opacity:0.19607843;stroke:#eec819;stroke-width:1px;stroke-linecap:round;stroke-linejoin:round;stroke-opacity:1" />
    <path
       inkscape:connector-curvature="0"
       id="path7267"
       d="m 104,852.36218 16,-8 40,0 -16,8 z"
       style="fill:#ffde4c;fill-opacity:0.19607843;stroke:#eec819;stroke-width:1px;stroke-linecap:round;stroke-linejoin:round;stroke-opacity:1" />
    <path
       inkscape:connector-curvature="0"
       id="path7269"
       d="m 160,844.36218 0,160.00002 -16,8 0,-160.00002 z"
       style="fill:#d6af00;fill-opacity:0.19607843;stroke:#eec819;stroke-width:1px;stroke-linecap:round;stroke-linejoin:round;stroke-opacity:1" />
    <path
       inkscape:connector-curvature="0"
       id="path7271"
       d="m 104,892.36218 40,0 16,-8"
       style="fill:none;stroke:#af910d;stroke-width:1px;stroke-linecap:round;stroke-linejoin:round;stroke-opacity:0.15294118" />
    <path
       inkscape:connector-curvature="0"
       id="path7273"
       d="m 104,932.36218 40,0 16,-8"
       style="fill:none;stroke:#af910d;stroke-width:1px;stroke-linecap:round;stroke-linejoin:round;stroke-opacity:0.15294118" />
    <path
       inkscape:connector-curvature="0"
       id="path7275"
       d="m 104,972.3622 40,0 16,-8"
       style="fill:none;stroke:#af910d;stroke-width:1px;stroke-linecap:round;stroke-linejoin:round;stroke-opacity:0.15294118" />
    <path
       inkscape:connector-curvature="0"
       id="path7287"
       d="m 280,860.36218 64,-32 160,0 -64,32 z"
       style="fill:#ffde4c;fill-opacity:0.19607843;stroke:#eec819;stroke-width:1px;stroke-linecap:butt;stroke-linejoin:round;stroke-opacity:1" />
    <path
       inkscape:connector-curvature="0"
       id="path7289"
       d="m 504,828.36218 0,160.00002 -64,32 0,-160.00002 z"
       style="fill:#d6af00;fill-opacity:0.19607843;stroke:#eec819;stroke-width:1px;stroke-linecap:butt;stroke-linejoin:round;stroke-opacity:1" />
    <g
       transform="translate(0,-32)"
       style="stroke:#af910d;stroke-opacity:0.15294118"
       id="g8069">
      <path
         style="fill:none;stroke:#af910d;stroke-width:1px;stroke-linecap:butt;stroke-linejoin:miter;stroke-opacity:0.15294118"
         d="M 320,200 320,40 384,8"
         id="path7291"
         inkscape:connector-curvature="0"
         transform="translate(0,852.36218)"
         sodipodi:nodetypes="ccc" />
      <path
         style="fill:none;stroke:#af910d;stroke-width:1px;stroke-linecap:butt;stroke-linejoin:miter;stroke-opacity:0.15294118"
         d="M 360,200 360,40 424,8"
         id="path7293"
         inkscape:connector-curvature="0"
         transform="translate(0,852.36218)"
         sodipodi:nodetypes="ccc" />
      <path
         style="fill:none;stroke:#af910d;stroke-width:1px;stroke-linecap:butt;stroke-linejoin:miter;stroke-opacity:0.15294118"
         d="M 400,200 400,40 464,8"
         id="path7295"
         inkscape:connector-curvature="0"
         transform="translate(0,852.36218)"
         sodipodi:nodetypes="ccc" />
      <path
         style="fill:none;stroke:#af910d;stroke-width:1px;stroke-linecap:butt;stroke-linejoin:miter;stroke-opacity:0.15294118"
         d="m 280,160 160,0 64,-32"
         id="path7297"
         inkscape:connector-curvature="0"
         transform="translate(0,852.36218)" />
      <path
         style="fill:none;stroke:#af910d;stroke-width:1px;stroke-linecap:butt;stroke-linejoin:miter;stroke-opacity:0.15294118"
         d="m 280,120 160,0 64,-32"
         id="path7299"
         inkscape:connector-curvature="0"
         transform="translate(0,852.36218)" />
      <path
         style="fill:none;stroke:#af910d;stroke-width:1px;stroke-linecap:butt;stroke-linejoin:miter;stroke-opacity:0.15294118"
         d="m 280,80 160,0 64,-32"
         id="path7301"
         inkscape:connector-curvature="0"
         transform="translate(0,852.36218)" />
      <path
         style="fill:none;stroke:#af910d;stroke-width:1px;stroke-linecap:butt;stroke-linejoin:miter;stroke-opacity:0.15294118"
         d="M 456,192 456,32 296,32"
         id="path7303"
         inkscape:connector-curvature="0"
         transform="translate(0,852.36218)" />
      <path
         style="fill:none;stroke:#af910d;stroke-width:1px;stroke-linecap:butt;stroke-linejoin:miter;stroke-opacity:0.15294118"
         d="M 472,184 472,24 312,24"
         id="path7305"
         inkscape:connector-curvature="0"
         transform="translate(0,852.36218)" />
      <path
         style="fill:none;stroke:#af910d;stroke-width:1px;stroke-linecap:butt;stroke-linejoin:miter;stroke-opacity:0.15294118"
         d="M 488,176 488,16 328,16"
         id="path7307"
         inkscape:connector-curvature="0"
         transform="translate(0,852.36218)" />
    </g>
    <g
       style="fill:#009ce4;fill-opacity:1"
       id="g6896"
       transform="matrix(2,0,0,2,-36.576757,-25.079598)">
      <g
         word-spacing="normal"
         letter-spacing="normal"
         font-size-adjust="none"
         font-stretch="normal"
         font-weight="normal"
         font-variant="normal"
         font-style="normal"
         stroke-miterlimit="10.433"
         xml:space="preserve"
         transform="matrix(0.28571429,0,0,-0.28571429,-50,562.5)"
         id="g6898"
         style="font-style:normal;font-variant:normal;font-weight:normal;font-stretch:normal;letter-spacing:normal;word-spacing:normal;text-anchor:start;fill:#009ce4;fill-opacity:1;stroke:#000000;stroke-linecap:butt;stroke-linejoin:miter;stroke-miterlimit:10.43299961;stroke-opacity:1;stroke-dasharray:none;stroke-dashoffset:0"><path
           id="path6900"
           d="m 1173.2,361.49 0,0.13 0.1,0.15 0,0.16 0.1,0.18 0,0.2 0.1,0.2 0,0.22 0.1,0.22 0.1,0.24 0.1,0.24 0.1,0.24 0.1,0.25 0.1,0.25 0.1,0.25 0.1,0.25 0.2,0.24 0.1,0.24 0.2,0.24 0.1,0.23 0.2,0.23 0.2,0.21 0.2,0.2 0.2,0.19 0.2,0.18 0.3,0.16 0.2,0.14 0.1,0.07 0.2,0.06 0.1,0.05 0.1,0.05 0.2,0.05 0.1,0.04 0.2,0.03 0.1,0.03 0.2,0.02 0.1,0.02 0.2,0.01 0.1,0 c 0.3,0 1.5,0 2.5,-0.64 -1.4,-0.25 -2.4,-1.5 -2.4,-2.68 0,-0.8 0.6,-1.75 1.9,-1.75 1.1,0 2.7,0.89 2.7,2.89 0,2.59 -2.9,3.28 -4.6,3.28 -2.9,0 -4.7,-2.64 -5.3,-3.78 -1.2,3.28 -3.9,3.78 -5.3,3.78 -5.2,0 -8.1,-6.42 -8.1,-7.67 0,-0.5 0.5,-0.5 0.7,-0.5 0.3,0 0.5,0.1 0.6,0.54 1.7,5.28 5,6.53 6.7,6.53 0.9,0 2.7,-0.43 2.7,-3.32 0,-1.55 -0.9,-4.9 -2.7,-11.86 -0.8,-3.1 -2.6,-5.19 -4.8,-5.19 -0.3,0 -1.4,0 -2.4,0.65 1.2,0.24 2.3,1.29 2.3,2.69 0,1.35 -1.1,1.74 -1.8,1.74 -1.5,0 -2.8,-1.3 -2.8,-2.89 0,-2.29 2.5,-3.29 4.7,-3.29 3.3,0 5.1,3.49 5.2,3.79 0.6,-1.85 2.4,-3.79 5.4,-3.79 5.1,0 8,6.43 8,7.68 0,0.5 -0.5,0.5 -0.6,0.5 -0.5,0 -0.6,-0.21 -0.7,-0.55 -1.6,-5.33 -5,-6.53 -6.6,-6.53 -2,0 -2.7,1.59 -2.7,3.3 0,1.09 0.2,2.18 0.8,4.37 z"
           inkscape:connector-curvature="0"
           style="fill:#009ce4;fill-opacity:1;stroke-width:0" /><path
           id="path6902"
           d="m 1194.5,378.6 0.3,0 0.2,-0.02 0.3,-0.03 0.2,-0.04 0.2,-0.05 0.3,-0.06 0.2,-0.07 0.2,-0.08 0.2,-0.1 0.2,-0.1 0.2,-0.12 0.2,-0.12 0.2,-0.14 0.1,-0.15 0.2,-0.16 0.2,-0.17 0.1,-0.18 0.2,-0.19 0.1,-0.2 0.1,-0.22 0.1,-0.22 0.2,-0.24 0.1,-0.25 0,-0.25 0.1,-0.27 0.1,-0.28 0.1,-0.29 0,-0.3 0,-0.31 0.1,-0.32 0,-0.33 0,-0.35 c 0,-4.33 -2.5,-5.61 -4.5,-5.61 -1.4,0 -4.5,0.38 -6,2.44 1.7,0.06 2.1,1.22 2.1,1.95 0,1.11 -0.9,1.91 -2,1.91 -0.9,0 -1.9,-0.59 -1.9,-2.02 0,-3.28 3.6,-5.4 7.8,-5.4 4.9,0 8.2,3.25 8.2,6.73 0,2.72 -2.2,5.44 -6.1,6.24 3.7,1.32 5,3.93 5,6.06 0,2.75 -3.1,4.81 -7,4.81 -3.9,0 -6.8,-1.89 -6.8,-4.67 0,-1.19 0.7,-1.84 1.8,-1.84 1.1,0 1.8,0.79 1.8,1.76 0,1.02 -0.7,1.75 -1.8,1.81 1.2,1.55 3.6,1.93 4.9,1.93 1.6,0 3.7,-0.77 3.7,-3.8 0,-1.47 -0.4,-3.06 -1.3,-4.14 -1.2,-1.33 -2.2,-1.41 -3.9,-1.5 -0.9,-0.08 -0.9,-0.08 -1.1,-0.11 -0.1,0 -0.4,-0.06 -0.4,-0.45 0,-0.49 0.3,-0.49 0.9,-0.49 z"
           inkscape:connector-curvature="0"
           style="fill:#009ce4;fill-opacity:1;stroke-width:0" /><path
           id="path6904"
           d="m 1255.5,362.74 0.1,0 0.2,0 0.1,0 0.1,0.01 0,0 0.1,0.01 0.1,0.01 0.1,0.01 0,0.01 0.1,0.01 0.1,0.02 0,0.02 0.1,0.02 0.1,0.03 0,0.02 0.1,0.03 0,0.04 0.1,0.04 0,0.04 0.1,0.04 0,0.05 0,0.03 0,0.03 0.1,0.03 0,0.03 0,0.03 0,0.03 0,0.03 0,0.04 0,0.03 0,0.04 0,0.04 0,0.04 0.1,0.04 0,0.04 0,0.05 0,0.04 c 0,1 -1,1 -1.7,1 h -29.8 c -0.7,0 -1.7,0 -1.7,-1 0,-0.98 1,-0.98 1.7,-0.98 z"
           inkscape:connector-curvature="0"
           style="fill:#009ce4;fill-opacity:1;stroke-width:0" /><path
           id="path6906"
           d="m 1255.5,353.07 0.1,0 0.1,0 0.1,0 0.1,0 0.1,0.01 0.1,0 0,0.01 0.1,0.01 0.1,0.01 0,0.01 0.1,0.01 0.1,0.02 0,0.02 0.1,0.02 0.1,0.03 0,0.02 0.1,0.04 0,0.03 0.1,0.04 0,0.04 0.1,0.05 0,0.02 0,0.03 0,0.02 0,0.03 0.1,0.03 0,0.03 0,0.03 0,0.04 0,0.03 0,0.04 0,0.03 0,0.04 0,0.04 0,0.04 0.1,0.04 0,0.05 0,0.04 0,0.05 c 0,1 -1,1 -1.7,1 h -29.8 c -0.7,0 -1.7,0 -1.7,-1 0,-1 1,-1 1.7,-1 z"
           inkscape:connector-curvature="0"
           style="fill:#009ce4;fill-opacity:1;stroke-width:0" /><path
           id="path6908"
           d="m 1280.4,362.79 v 1.18 c 0,12.61 6.2,14.41 8.7,14.41 1.2,0 3.3,-0.3 4.4,-2 -0.8,0 -2.8,0 -2.8,-2.24 0,-1.54 1.2,-2.29 2.3,-2.29 0.8,0 2.3,0.45 2.3,2.39 0,3 -2.2,5.39 -6.3,5.39 -6.4,0 -13.1,-6.44 -13.1,-17.44 0,-13.31 5.8,-16.84 10.4,-16.84 5.5,0 10.3,4.69 10.3,11.25 0,6.33 -4.5,11.12 -10,11.12 l 0,-1.15 c 0.7,0 3,0 4.6,-3.1 0.9,-1.83 0.9,-4.37 0.9,-6.81 0,-2.39 0,-4.89 -0.9,-6.69 -1.5,-2.98 -3.8,-3.23 -4.9,-3.23 h 0 c -3.1,0 -4.6,2.98 -4.9,3.73 -0.9,2.35 -0.9,6.33 -0.9,7.24 0,3.87 1.6,8.86 6.1,8.86 l 0,1.15 c -3.4,0 -5.2,-2.54 -6.2,-4.93 z"
           inkscape:connector-curvature="0"
           style="fill:#009ce4;fill-opacity:1;stroke-width:0" /><path
           id="path6910"
           d="m 1313.4,354.66 v -4.33 c 0,-1.79 -0.1,-2.34 -3.8,-2.34 h -1 v -1.55 c 2,0.16 4.6,0.16 6.7,0.16 2.1,0 4.7,0 6.8,-0.16 v 1.55 h -1.1 c -3.7,0 -3.8,0.55 -3.8,2.34 v 4.33 h 5 v 1.55 h -5 v 22.67 c 0,1 0,1.3 -0.8,1.3 -0.4,0 -0.6,0 -1,-0.61 l -15.3,-23.36 h 1.5 l 12.1,18.58 v -18.58 h -12.1 -1.5 v -1.55 z"
           inkscape:connector-curvature="0"
           style="fill:#009ce4;fill-opacity:1;stroke-width:0" /></g>    </g>
    <g
       id="g8144"
       transform="matrix(1.1583516,0,0,1.1583516,81.14783,530.64055)"
       style="fill:#009ce4;fill-opacity:1">
      <g
         word-spacing="normal"
         letter-spacing="normal"
         font-size-adjust="none"
         font-stretch="normal"
         font-weight="normal"
         font-variant="normal"
         font-style="normal"
         stroke-miterlimit="10.433"
         xml:space="preserve"
         transform="matrix(0.34285714,0,0,-0.34285714,-60,480)"
         id="g8146"
         style="font-style:normal;font-variant:normal;font-weight:normal;font-stretch:normal;letter-spacing:normal;word-spacing:normal;text-anchor:start;fill:#009ce4;stroke:#000000;stroke-linecap:butt;stroke-linejoin:miter;stroke-miterlimit:10.43299961000000000;stroke-opacity:1;stroke-dasharray:none;stroke-dashoffset:0;fill-opacity:1"><path
           id="path8148"
           d="m 461.35,417.06 0,0.38 0.01,0.36 0.01,0.36 0.02,0.35 0.03,0.34 0.03,0.34 0.04,0.32 0.04,0.32 0.05,0.31 0.05,0.3 0.05,0.29 0.06,0.29 0.14,0.55 0.15,0.51 0.17,0.49 0.18,0.46 0.19,0.43 0.21,0.4 0.22,0.38 0.23,0.35 0.24,0.32 0.25,0.3 0.26,0.28 0.27,0.26 0.27,0.23 0.27,0.21 0.28,0.19 0.28,0.16 0.28,0.15 0.29,0.13 0.28,0.12 0.28,0.09 0.28,0.08 0.27,0.06 0.28,0.05 0.26,0.03 0.26,0.02 0.25,0.01 c 0.44,0 3.58,-0.05 5.33,-1.85 -2.05,-0.15 -2.34,-1.64 -2.34,-2.29 0,-1.3 0.89,-2.3 2.29,-2.3 1.28,0 2.28,0.86 2.28,2.34 0,3.39 -3.78,5.33 -7.62,5.33 -6.22,0 -10.81,-5.37 -10.81,-11.55 0,-6.37 4.93,-11.31 10.72,-11.31 6.67,0 8.26,5.99 8.26,6.47 0,0.5 -0.5,0.5 -0.64,0.5 -0.45,0 -0.55,-0.19 -0.66,-0.5 -1.43,-4.62 -4.67,-5.22 -6.51,-5.22 -2.64,0 -7.03,2.14 -7.03,10.16 z"
           inkscape:connector-curvature="0"
           style="fill:#009ce4;stroke-width:0;fill-opacity:1" /><path
           id="path8150"
           d="m 497.08,410.14 v -4.49 l 7.17,0.55 v 1.55 c -3.48,0 -3.89,0.34 -3.89,2.78 v 17.68 l -7.32,-0.54 v -1.55 c 3.5,0 3.89,-0.34 3.89,-2.78 v -8.88 c 0,-4.32 -2.39,-7.71 -6.04,-7.71 -4.17,0 -4.37,2.34 -4.37,4.93 v 16.53 l -7.33,-0.54 v -1.55 c 3.89,0 3.89,-0.14 3.89,-4.58 v -7.47 c 0,-3.89 0,-8.42 7.56,-8.42 2.8,0 4.99,1.39 6.44,4.49 z"
           inkscape:connector-curvature="0"
           style="fill:#009ce4;stroke-width:0;fill-opacity:1" /><path
           id="path8152"
           d="m 513.88,424.98 v 15.8 l -7.17,-0.55 v -1.55 c 3.48,0 3.89,-0.34 3.89,-2.79 V 406.2 h 1.25 c 0.04,0.05 0.43,0.75 1.78,3.09 0.75,-1.15 2.84,-3.64 6.53,-3.64 l -0.2,1.1 c -2.24,0 -4.03,1.2 -5.22,3.04 -0.71,1.05 -0.71,1.19 -0.71,2.08 h 0 v 10.27 c 0,0.95 0,1 0.55,1.79 1.94,2.8 4.69,3.19 5.88,3.19 2.25,0 4.04,-1.3 5.23,-3.19 1.3,-2.04 1.46,-4.87 1.46,-6.92 0,-1.84 -0.12,-4.83 -1.55,-7.08 -1.05,-1.54 -2.94,-3.18 -5.64,-3.18 l 0.2,-1.1 c 5.94,0 11.11,4.88 11.11,11.31 0,6.33 -4.87,11.25 -10.56,11.25 -3.88,0 -6.03,-2.34 -6.83,-3.23 z"
           inkscape:connector-curvature="0"
           style="fill:#009ce4;stroke-width:0;fill-opacity:1" /><path
           id="path8154"
           d="m 540.01,417.71 0.04,1.05 c 0.3,7.42 4.49,8.66 6.19,8.66 5.13,0 5.63,-6.72 5.63,-8.66 h -11.82 l -0.04,-1.05 h 13.9 c 1.1,0 1.24,0 1.24,1.05 0,4.92 -2.69,9.75 -8.91,9.75 -5.78,0 -10.37,-5.12 -10.37,-11.36 0,-6.67 5.23,-11.5 10.97,-11.5 6.07,0 8.31,5.53 8.31,6.47 0,0.5 -0.39,0.61 -0.64,0.61 -0.46,0 -0.55,-0.3 -0.66,-0.7 -1.73,-5.13 -6.22,-5.13 -6.72,-5.13 -2.5,0 -4.48,1.49 -5.62,3.33 -1.5,2.39 -1.5,5.69 -1.5,7.48 z"
           inkscape:connector-curvature="0"
           style="fill:#009ce4;stroke-width:0;fill-opacity:1" /><path
           id="path8156"
           d="m 575.49,408.93 v -3.28 l 7.31,0.55 v 1.55 c -3.48,0 -3.87,0.34 -3.87,2.78 v 30.25 l -7.17,-0.55 v -1.55 c 3.48,0 3.87,-0.34 3.87,-2.79 v -10.75 c -1.43,1.78 -3.58,3.07 -6.28,3.07 l 0.2,-1.09 c 1.75,0 3.85,-0.75 5.4,-2.98 0.54,-0.85 0.54,-0.96 0.54,-1.85 h 0 v -10.22 c 0,-0.89 0,-1 -0.54,-1.84 -1.5,-2.39 -3.75,-3.48 -5.9,-3.48 -2.23,0 -4.03,1.29 -5.21,3.18 -1.3,2.05 -1.46,4.89 -1.46,6.93 0,1.84 0.1,4.84 1.55,7.07 1.05,1.55 2.94,3.19 5.62,3.19 l -0.2,1.09 c -5.87,0 -11.11,-4.87 -11.11,-11.29 0,-6.33 4.89,-11.27 10.56,-11.27 3.19,0 5.44,1.69 6.69,3.28 z"
           inkscape:connector-curvature="0"
           style="fill:#009ce4;stroke-width:0;fill-opacity:1" /></g>    </g>
  </g>
</svg>
