<?xml version="1.0" encoding="UTF-8" standalone="no"?>
<!-- Created with Inkscape (http://www.inkscape.org/) -->

<svg
   xmlns:dc="http://purl.org/dc/elements/1.1/"
   xmlns:cc="http://creativecommons.org/ns#"
   xmlns:rdf="http://www.w3.org/1999/02/22-rdf-syntax-ns#"
   xmlns:svg="http://www.w3.org/2000/svg"
   xmlns="http://www.w3.org/2000/svg"
   xmlns:sodipodi="http://sodipodi.sourceforge.net/DTD/sodipodi-0.dtd"
   xmlns:inkscape="http://www.inkscape.org/namespaces/inkscape"
   width="700"
   height="400"
   id="svg8294"
   version="1.1"
   inkscape:version="0.48.4 r9939"
   sodipodi:docname="exponents.svg">
  <sodipodi:namedview
     id="base"
     pagecolor="#ffffff"
     bordercolor="#666666"
     borderopacity="1.0"
     inkscape:pageopacity="0"
     inkscape:pageshadow="2"
     inkscape:zoom="1"
     inkscape:cx="285.44278"
     inkscape:cy="142.43523"
     inkscape:document-units="px"
     inkscape:current-layer="layer1"
     showgrid="false"
     inkscape:window-width="1600"
     inkscape:window-height="1138"
     inkscape:window-x="-8"
     inkscape:window-y="-8"
     inkscape:window-maximized="1" />
  <defs
     id="defs8296" />
  <metadata
     id="metadata8299">
    <rdf:RDF>
      <cc:Work
         rdf:about="">
        <dc:format>image/svg+xml</dc:format>
        <dc:type
           rdf:resource="http://purl.org/dc/dcmitype/StillImage" />
      </cc:Work>
    </rdf:RDF>
  </metadata>
  <g
     transform="translate(0,-652.36218)"
     id="layer1"
     inkscape:groupmode="layer"
     inkscape:label="Layer 1">
    <g
       id="g8307"
       transform="matrix(5.7452504,0,0,5.7452504,-3197.8787,334.38503)">
      <g
         word-spacing="normal"
         letter-spacing="normal"
         font-size-adjust="none"
         font-stretch="normal"
         font-weight="normal"
         font-variant="normal"
         font-style="normal"
         stroke-miterlimit="10.433"
         xml:space="preserve"
         transform="matrix(0.57142857,0,0,-0.57142857,-100,300)"
         id="content"
         style="font-style:normal;font-variant:normal;font-weight:normal;font-stretch:normal;letter-spacing:normal;word-spacing:normal;text-anchor:start;fill:none;stroke:#000000;stroke-linecap:butt;stroke-linejoin:miter;stroke-miterlimit:10.43299961;stroke-opacity:1;stroke-dasharray:none;stroke-dashoffset:0"><path
           id="path8310"
           d="m 1226.6,365.27 -0.1,0.17 -0.1,0.17 0,0.16 -0.1,0.17 -0.1,0.15 -0.1,0.16 -0.1,0.15 -0.2,0.15 -0.1,0.14 -0.1,0.14 -0.1,0.13 -0.1,0.13 -0.2,0.12 -0.1,0.12 -0.1,0.12 -0.2,0.1 -0.1,0.11 -0.2,0.1 -0.1,0.09 -0.2,0.08 -0.1,0.08 -0.2,0.08 -0.2,0.07 -0.1,0.06 -0.2,0.05 -0.2,0.05 -0.2,0.04 -0.2,0.04 -0.2,0.02 -0.2,0.02 -0.2,0.01 -0.2,0.01 0.1,-1.1 c 3.2,0 3.9,-4.07 3.9,-4.37 0,-0.31 -0.1,-0.61 -0.1,-0.86 l -2.5,-9.77 c -0.3,-0.89 -0.3,-0.98 -1,-1.84 -2.2,-2.73 -4.2,-3.53 -5.6,-3.53 -2.5,0 -3.2,2.73 -3.2,4.69 0,2.48 1.6,8.61 2.7,10.9 1.5,2.94 3.8,4.78 5.8,4.78 l -0.1,1.1 c -5.8,0 -12,-7.32 -12,-14.6 0,-4.68 2.8,-7.97 6.7,-7.97 1,0 3.5,0.21 6.4,3.74 0.4,-2.09 2.2,-3.74 4.6,-3.74 1.7,0 2.9,1.15 3.6,2.74 0.9,1.8 1.5,4.84 1.5,4.94 0,0.5 -0.4,0.5 -0.5,0.5 -0.5,0 -0.6,-0.21 -0.7,-0.91 -0.9,-3.23 -1.8,-6.17 -3.8,-6.17 -1.4,0 -1.5,1.3 -1.5,2.3 0,1.09 0.1,1.48 0.6,3.68 0.6,2.1 0.7,2.6 1.1,4.49 l 1.8,6.97 c 0.4,1.39 0.4,1.5 0.4,1.68 0,0.86 -0.6,1.36 -1.5,1.36 -1.2,0 -1.9,-1.11 -2.1,-2.2 z"
           inkscape:connector-curvature="0"
           style="fill:#009828;fill-opacity:1;stroke-width:0" /><path
           id="path8312"
           d="m 1249.4,369.79 0,-0.07 0,-0.07 0,-0.07 0,-0.07 0,-0.08 -0.1,-0.08 0,-0.16 0,-0.16 -0.1,-0.16 0,-0.16 0,-0.07 -0.1,-0.08 0,-0.08 0,-0.07 0,-0.07 0,-0.07 0,-0.07 -0.1,-0.06 0,-0.06 0,-0.06 0,-0.05 0,-0.05 0,-0.04 0,-0.04 0,-0.04 0,-0.03 0,-0.02 0,-0.02 c 0,-0.77 0.6,-1.11 1.1,-1.11 0.7,0 1.2,0.45 1.4,0.76 0.2,0.32 0.4,1.42 0.6,2.16 0.2,0.66 0.6,2.26 0.8,3.14 0.2,0.77 0.4,1.53 0.6,2.33 0.4,1.5 0.4,1.56 1.1,2.65 1.1,1.71 2.8,3.69 5.5,3.69 2,0 2.1,-1.61 2.1,-2.44 0,-2.09 -1.5,-5.95 -2.1,-7.42 -0.3,-0.98 -0.5,-1.29 -0.5,-1.89 0,-1.84 1.6,-2.98 3.3,-2.98 3.5,0 5,4.79 5,5.33 0,0.45 -0.4,0.45 -0.5,0.45 -0.5,0 -0.5,-0.2 -0.7,-0.6 -0.8,-2.78 -2.3,-4.21 -3.7,-4.21 -0.7,0 -0.8,0.48 -0.8,1.21 0,0.8 0.1,1.25 0.8,2.83 0.4,1.08 1.8,4.77 1.8,6.72 0,0.56 0,2.03 -1.3,3.03 -0.6,0.46 -1.6,0.94 -3.2,0.94 -3.1,0 -5.1,-2.05 -6.2,-3.52 -0.3,2.97 -2.8,3.52 -4.5,3.52 -2.9,0 -4.9,-1.77 -5.9,-3.16 -0.3,2.39 -2.3,3.16 -3.7,3.16 -1.5,0 -2.3,-1.08 -2.8,-1.87 -0.8,-1.29 -1.2,-3.29 -1.2,-3.46 0,-0.45 0.4,-0.45 0.6,-0.45 0.4,0 0.5,0.11 0.7,1.05 0.5,2.06 1.2,3.76 2.6,3.76 0.9,0 1.1,-0.76 1.1,-1.7 0,-0.67 -0.3,-1.95 -0.6,-2.89 -0.2,-0.96 -0.5,-2.38 -0.7,-3.14 l -1.1,-4.47 c -0.2,-0.44 -0.4,-1.31 -0.4,-1.42 0,-0.77 0.6,-1.11 1.2,-1.11 0.6,0 1.2,0.45 1.4,0.76 0.1,0.32 0.4,1.42 0.6,2.16 0.2,0.66 0.5,2.26 0.8,3.14 0.2,0.77 0.4,1.53 0.6,2.33 0.3,1.44 0.4,1.7 1.4,3.14 1,1.39 2.6,3.2 5.2,3.2 2.1,0 2.1,-1.78 2.1,-2.44 0,-0.87 -0.1,-1.32 -0.6,-3.28 z"
           inkscape:connector-curvature="0"
           style="fill:#009ce4;fill-opacity:1;stroke-width:0" /></g>    </g>
    <g
       id="g9358"
       transform="matrix(1.7408363,0,0,1.7408363,-213.48491,866.40932)"
       style="fill:#009828;fill-opacity:0.78431374">
      <g
         id="g9360"
         transform="matrix(0.57142857,0,0,-0.57142857,-100,300)"
         xml:space="preserve"
         stroke-miterlimit="10.433"
         font-style="normal"
         font-variant="normal"
         font-weight="normal"
         font-stretch="normal"
         font-size-adjust="none"
         letter-spacing="normal"
         word-spacing="normal"
         style="font-style:normal;font-variant:normal;font-weight:normal;font-stretch:normal;letter-spacing:normal;word-spacing:normal;text-anchor:start;fill:#009828;fill-opacity:0.78431374;stroke:#000000;stroke-linecap:butt;stroke-linejoin:miter;stroke-miterlimit:10.43299961000000000;stroke-opacity:1;stroke-dasharray:none;stroke-dashoffset:0"><path
           d="m 464.08,424.98 v 15.8 l -7.17,-0.55 v -1.55 c 3.48,0 3.89,-0.34 3.89,-2.79 V 406.2 h 1.25 c 0.05,0.05 0.44,0.75 1.78,3.09 0.75,-1.15 2.85,-3.64 6.53,-3.64 l -0.2,1.1 c -2.23,0 -4.03,1.2 -5.22,3.04 -0.7,1.05 -0.7,1.19 -0.7,2.08 h 0 v 10.27 c 0,0.95 0,1 0.55,1.79 1.93,2.8 4.68,3.19 5.87,3.19 2.25,0 4.05,-1.3 5.23,-3.19 1.3,-2.04 1.46,-4.87 1.46,-6.92 0,-1.84 -0.11,-4.83 -1.55,-7.08 -1.05,-1.54 -2.94,-3.18 -5.64,-3.18 l 0.2,-1.1 c 5.94,0 11.11,4.88 11.11,11.31 0,6.33 -4.87,11.25 -10.56,11.25 -3.87,0 -6.03,-2.34 -6.83,-3.23 z"
           id="path9362"
           inkscape:connector-curvature="0"
           style="fill:#009828;fill-opacity:0.78431374;stroke-width:0" /><path
           d="m 499.83,409.98 0.02,-0.19 0.03,-0.18 0.04,-0.19 0.04,-0.18 0.05,-0.19 0.06,-0.18 0.06,-0.18 0.07,-0.18 0.07,-0.18 0.08,-0.17 0.09,-0.18 0.09,-0.16 0.1,-0.16 0.11,-0.16 0.12,-0.16 0.11,-0.14 0.13,-0.14 0.13,-0.14 0.14,-0.13 0.15,-0.12 0.15,-0.12 0.15,-0.1 0.17,-0.1 0.16,-0.09 0.18,-0.08 0.18,-0.07 0.19,-0.06 0.19,-0.05 0.2,-0.04 0.21,-0.03 0.21,-0.02 0.21,-0.01 c 1.03,0 4.08,0.71 4.08,4.74 v 2.78 h -1.25 v -2.78 c 0,-2.89 -1.23,-3.19 -1.8,-3.19 -1.64,0 -1.84,2.23 -1.84,2.48 v 9.97 c 0,2.1 0,4.03 -1.78,5.88 -1.95,1.93 -4.44,2.73 -6.83,2.73 -4.09,0 -7.53,-2.33 -7.53,-5.62 0,-1.49 1,-2.35 2.3,-2.35 1.39,0 2.29,1 2.29,2.3 0,0.59 -0.25,2.23 -2.54,2.3 1.34,1.73 3.78,2.28 5.37,2.28 2.45,0 5.28,-1.94 5.28,-6.38 v -1.84 -1.05 -4.98 c 0,-4.74 -3.58,-6.42 -5.83,-6.42 -2.43,0 -4.48,1.75 -4.48,4.23 0,2.73 2.09,6.88 10.31,7.17 h 0 v 1.05 c -2.53,-0.14 -6.01,-0.3 -9.15,-1.8 -3.74,-1.69 -4.99,-4.28 -4.99,-6.47 0,-4.03 4.83,-5.28 7.97,-5.28 3.3,0 5.58,1.99 6.53,4.33 z"
           id="path9364"
           inkscape:connector-curvature="0"
           style="fill:#009828;fill-opacity:0.78431374;stroke-width:0" /><path
           d="m 518.55,415.87 0.12,-0.02 0.12,-0.02 0.15,-0.03 0.15,-0.04 0.17,-0.04 0.18,-0.04 0.19,-0.05 0.2,-0.06 0.2,-0.06 0.21,-0.07 0.22,-0.08 0.22,-0.08 0.22,-0.1 0.22,-0.1 0.22,-0.11 0.22,-0.12 0.21,-0.14 0.22,-0.14 0.2,-0.15 0.2,-0.16 0.19,-0.18 0.18,-0.19 0.17,-0.2 0.16,-0.21 0.14,-0.22 0.06,-0.12 0.07,-0.12 0.06,-0.13 0.05,-0.12 0.05,-0.14 0.04,-0.13 0.04,-0.14 0.04,-0.14 0.03,-0.15 0.03,-0.15 0.02,-0.16 0.01,-0.15 0.01,-0.17 0,-0.16 c 0,-2.53 -1.75,-4.53 -5.62,-4.53 -4.19,0 -5.99,2.84 -6.94,7.07 -0.14,0.64 -0.19,0.85 -0.69,0.85 -0.65,0 -0.65,-0.35 -0.65,-1.25 v -6.58 c 0,-0.84 0,-1.19 0.54,-1.19 0.25,0 0.3,0.05 1.25,1 0.1,0.1 0.1,0.19 1,1.14 2.19,-2.09 4.44,-2.14 5.49,-2.14 5.72,0 8.01,3.35 8.01,6.92 0,2.64 -1.5,4.14 -2.09,4.74 -1.64,1.59 -3.59,2 -5.69,2.39 -2.78,0.55 -6.12,1.2 -6.12,4.09 0,1.74 1.29,3.78 5.57,3.78 5.49,0 5.74,-4.48 5.83,-6.03 0.07,-0.45 0.5,-0.45 0.61,-0.45 0.64,0 0.64,0.25 0.64,1.2 v 5.03 c 0,0.85 0,1.19 -0.54,1.19 -0.25,0 -0.35,0 -1,-0.59 -0.14,-0.21 -0.64,-0.64 -0.85,-0.8 -1.89,1.39 -3.94,1.39 -4.69,1.39 -6.07,0 -7.96,-3.33 -7.96,-6.12 0,-1.74 0.79,-3.14 2.14,-4.24 1.59,-1.29 3,-1.59 6.57,-2.28 z"
           id="path9366"
           inkscape:connector-curvature="0"
           style="fill:#009828;fill-opacity:0.78431374;stroke-width:0" /><path
           d="m 533.41,417.71 0.04,1.05 c 0.3,7.42 4.49,8.66 6.19,8.66 5.13,0 5.63,-6.72 5.63,-8.66 h -11.82 l -0.04,-1.05 h 13.9 c 1.1,0 1.24,0 1.24,1.05 0,4.92 -2.69,9.75 -8.91,9.75 -5.78,0 -10.37,-5.12 -10.37,-11.36 0,-6.67 5.23,-11.5 10.96,-11.5 6.08,0 8.32,5.53 8.32,6.47 0,0.5 -0.39,0.61 -0.64,0.61 -0.46,0 -0.55,-0.3 -0.66,-0.7 -1.73,-5.13 -6.22,-5.13 -6.72,-5.13 -2.5,0 -4.48,1.49 -5.62,3.33 -1.5,2.39 -1.5,5.69 -1.5,7.48 z"
           id="path9368"
           inkscape:connector-curvature="0"
           style="fill:#009828;fill-opacity:0.78431374;stroke-width:0" /></g>    </g>
    <g
       id="g9860"
       transform="translate(103.19596,-1.4142136)">
      <g
         style="fill:#009ce4;fill-opacity:0.78431374"
         transform="matrix(1.7408363,0,0,1.7408363,73.04297,603.17262)"
         id="g9398">
        <g
           style="font-style:normal;font-variant:normal;font-weight:normal;font-stretch:normal;letter-spacing:normal;word-spacing:normal;text-anchor:start;fill:#009ce4;fill-opacity:0.78431374;stroke:#000000;stroke-linecap:butt;stroke-linejoin:miter;stroke-miterlimit:10.43299961000000000;stroke-opacity:1;stroke-dasharray:none;stroke-dashoffset:0"
           id="g9400"
           transform="matrix(0.57142857,0,0,-0.57142857,-100,300)"
           xml:space="preserve"
           stroke-miterlimit="10.433"
           font-style="normal"
           font-variant="normal"
           font-weight="normal"
           font-stretch="normal"
           font-size-adjust="none"
           letter-spacing="normal"
           word-spacing="normal"><path
             style="fill:#009ce4;fill-opacity:0.78431374;stroke-width:0"
             inkscape:connector-curvature="0"
             d="m 461.05,417.71 0.05,1.05 c 0.29,7.42 4.48,8.66 6.19,8.66 5.12,0 5.62,-6.72 5.62,-8.66 H 461.1 l -0.05,-1.05 h 13.91 c 1.09,0 1.23,0 1.23,1.05 0,4.92 -2.69,9.75 -8.9,9.75 -5.79,0 -10.38,-5.12 -10.38,-11.36 0,-6.67 5.23,-11.5 10.97,-11.5 6.08,0 8.31,5.53 8.31,6.47 0,0.5 -0.39,0.61 -0.64,0.61 -0.45,0 -0.55,-0.3 -0.66,-0.7 -1.73,-5.13 -6.21,-5.13 -6.71,-5.13 -2.5,0 -4.49,1.49 -5.63,3.33 -1.5,2.39 -1.5,5.69 -1.5,7.48 z"
             id="path9402" /><path
             style="fill:#009ce4;fill-opacity:0.78431374;stroke-width:0"
             inkscape:connector-curvature="0"
             d="m 491.89,417.9 0.29,0.36 0.29,0.37 0.3,0.38 0.31,0.39 0.61,0.78 0.31,0.38 0.3,0.39 0.3,0.37 0.3,0.37 0.29,0.35 0.28,0.34 0.13,0.16 0.14,0.16 0.13,0.16 0.13,0.15 0.12,0.14 0.12,0.14 0.12,0.13 0.11,0.12 c 1.55,1.78 3.6,2.53 5.94,2.58 v 1.55 c -1.3,-0.1 -2.8,-0.14 -4.09,-0.14 -1.49,0 -4.13,0.09 -4.78,0.14 v -1.55 c 1.04,-0.09 1.45,-0.73 1.45,-1.53 0,-0.8 -0.5,-1.45 -0.75,-1.75 l -3.1,-3.89 -3.87,5.03 c -0.45,0.5 -0.45,0.61 -0.45,0.91 0,0.75 0.75,1.18 1.73,1.23 v 1.55 c -1.28,-0.05 -4.58,-0.14 -5.37,-0.14 -1.05,0 -3.39,0.04 -4.74,0.14 v -1.55 c 3.49,0 3.55,-0.05 5.88,-3.03 l 4.93,-6.42 -4.68,-5.94 c -2.39,-2.89 -5.33,-2.98 -6.38,-2.98 v -1.55 c 1.3,0.09 2.85,0.16 4.14,0.16 1.44,0 3.53,-0.11 4.74,-0.16 v 1.55 c -1.1,0.14 -1.46,0.79 -1.46,1.54 0,1.1 1.46,2.74 4.49,6.33 l 3.79,-4.98 c 0.4,-0.55 1.05,-1.35 1.05,-1.64 0,-0.46 -0.45,-1.21 -1.8,-1.25 v -1.55 c 1.49,0.05 4.29,0.16 5.38,0.16 1.34,0 3.3,-0.07 4.78,-0.16 v 1.55 c -2.69,0 -3.58,0.09 -4.73,1.54 z"
             id="path9404" /><path
             style="fill:#009ce4;fill-opacity:0.78431374;stroke-width:0"
             inkscape:connector-curvature="0"
             d="m 512.44,424.93 v 3.28 l -7.17,-0.54 v -1.55 c 3.54,0 3.89,-0.3 3.89,-2.48 v -23.32 c 0,-2.25 -0.55,-2.25 -3.89,-2.25 v -1.54 c 1.7,0.06 4.28,0.15 5.57,0.15 1.35,0 3.89,-0.09 5.64,-0.15 v 1.54 c -3.34,0 -3.89,0 -3.89,2.25 v 8.36 0.46 l 0.71,0.65 c -0.71,1.05 -0.71,1.1 -0.71,2.08 h 0 V 423 c 1.44,2.53 3.89,3.98 6.43,3.98 3.64,0 6.68,-4.39 6.68,-10.02 0,-6.03 -3.5,-10.21 -7.18,-10.21 -1.99,0 -3.88,1 -5.22,3.04 l -0.71,-0.65 c 0.25,-0.8 2.35,-3.49 6.13,-3.49 5.94,0 11.11,4.88 11.11,11.31 0,6.33 -4.83,11.25 -10.41,11.25 -3.89,0 -5.98,-2.18 -6.98,-3.28 z"
             id="path9406" /><path
             style="fill:#009ce4;fill-opacity:0.78431374;stroke-width:0"
             inkscape:connector-curvature="0"
             d="m 556.5,416.86 -0.01,0.59 -0.04,0.59 -0.07,0.58 -0.1,0.57 -0.13,0.56 -0.15,0.55 -0.17,0.54 -0.2,0.53 -0.22,0.51 -0.25,0.5 -0.26,0.49 -0.29,0.47 -0.31,0.46 -0.33,0.44 -0.35,0.43 -0.36,0.4 -0.39,0.39 -0.4,0.37 -0.41,0.35 -0.44,0.32 -0.44,0.31 -0.46,0.28 -0.48,0.26 -0.49,0.24 -0.5,0.21 -0.51,0.18 -0.52,0.16 -0.53,0.13 -0.54,0.11 -0.54,0.07 -0.56,0.05 -0.56,0.01 -0.05,-1.09 c 2.19,0 4.33,-1.1 5.63,-3.24 1.29,-2.14 1.29,-5.03 1.29,-6.92 0,-1.8 0,-4.48 -1.09,-6.67 -1.09,-2.25 -3.28,-3.69 -5.78,-3.69 h 0 c -2.14,0 -4.33,1.05 -5.67,3.33 -1.25,2.2 -1.25,5.23 -1.25,7.03 0,1.94 0,4.63 1.18,6.83 1.36,2.28 3.69,3.33 5.69,3.33 l 0.05,1.09 c -6.22,0 -11.06,-5.42 -11.06,-11.65 0,-6.43 5.18,-11.21 11.01,-11.21 6.03,0 11.06,4.88 11.06,11.21 z"
             id="path9408" /><path
             style="fill:#009ce4;fill-opacity:0.78431374;stroke-width:0"
             inkscape:connector-curvature="0"
             d="m 563.48,423.34 v -13.36 c 0,-2.23 -0.55,-2.23 -3.89,-2.23 v -1.55 c 1.75,0.05 4.28,0.16 5.62,0.16 1.3,0 3.89,-0.11 5.58,-0.16 v 1.55 c -3.33,0 -3.88,0 -3.88,2.23 v 9.17 c 0,5.19 3.54,7.97 6.72,7.97 3.14,0 3.69,-2.69 3.69,-5.53 v -11.61 c 0,-2.23 -0.55,-2.23 -3.89,-2.23 v -1.55 c 1.75,0.05 4.3,0.16 5.64,0.16 1.3,0 3.88,-0.11 5.58,-0.16 v 1.55 c -2.6,0 -3.85,0 -3.89,1.5 v 9.51 c 0,4.28 0,5.83 -1.55,7.61 -0.69,0.86 -2.34,1.84 -5.22,1.84 -3.64,0 -5.98,-2.14 -7.37,-5.21 v 5.21 l -7.03,-0.54 v -1.55 c 3.48,0 3.89,-0.34 3.89,-2.78 z"
             id="path9410" /><path
             style="fill:#009ce4;fill-opacity:0.78431374;stroke-width:0"
             inkscape:connector-curvature="0"
             d="m 591.24,417.71 0.05,1.05 c 0.3,7.42 4.48,8.66 6.19,8.66 5.12,0 5.62,-6.72 5.62,-8.66 h -11.81 l -0.05,-1.05 h 13.91 c 1.09,0 1.23,0 1.23,1.05 0,4.92 -2.68,9.75 -8.9,9.75 -5.78,0 -10.38,-5.12 -10.38,-11.36 0,-6.67 5.24,-11.5 10.97,-11.5 6.08,0 8.31,5.53 8.31,6.47 0,0.5 -0.39,0.61 -0.64,0.61 -0.45,0 -0.54,-0.3 -0.65,-0.7 -1.74,-5.13 -6.22,-5.13 -6.72,-5.13 -2.5,0 -4.49,1.49 -5.63,3.33 -1.5,2.39 -1.5,5.69 -1.5,7.48 z"
             id="path9412" /><path
             style="fill:#009ce4;fill-opacity:0.78431374;stroke-width:0"
             inkscape:connector-curvature="0"
             d="m 613.27,423.34 v -13.36 c 0,-2.23 -0.54,-2.23 -3.89,-2.23 v -1.55 c 1.75,0.05 4.28,0.16 5.63,0.16 1.29,0 3.89,-0.11 5.58,-0.16 v 1.55 c -3.33,0 -3.88,0 -3.88,2.23 v 9.17 c 0,5.19 3.53,7.97 6.72,7.97 3.14,0 3.69,-2.69 3.69,-5.53 v -11.61 c 0,-2.23 -0.55,-2.23 -3.89,-2.23 v -1.55 c 1.75,0.05 4.29,0.16 5.64,0.16 1.29,0 3.87,-0.11 5.58,-0.16 v 1.55 c -2.6,0 -3.85,0 -3.9,1.5 v 9.51 c 0,4.28 0,5.83 -1.54,7.61 -0.69,0.86 -2.35,1.84 -5.22,1.84 -3.64,0 -5.99,-2.14 -7.38,-5.21 v 5.21 l -7.03,-0.54 v -1.55 c 3.49,0 3.89,-0.34 3.89,-2.78 z"
             id="path9414" /><path
             style="fill:#009ce4;fill-opacity:0.78431374;stroke-width:0"
             inkscape:connector-curvature="0"
             d="m 642.69,426.12 h 7.13 v 1.55 h -7.13 v 9.17 h -1.25 c -0.04,-4.08 -1.54,-9.42 -6.42,-9.61 v -1.11 h 4.23 v -13.75 c 0,-6.12 4.63,-6.72 6.43,-6.72 3.53,0 4.93,3.53 4.93,6.72 v 2.84 h -1.25 v -2.73 c 0,-3.69 -1.5,-5.58 -3.34,-5.58 -3.33,0 -3.33,4.53 -3.33,5.38 z"
             id="path9416" /></g>      </g>
      <g
         style="fill:#009ce4;fill-opacity:0.78431374"
         transform="matrix(1.2052732,0,0,1.2052732,272.37263,716.85077)"
         id="g9466">
        <g
           style="font-style:normal;font-variant:normal;font-weight:normal;font-stretch:normal;letter-spacing:normal;word-spacing:normal;text-anchor:start;fill:#009ce4;fill-opacity:0.78431374;stroke:#000000;stroke-linecap:butt;stroke-linejoin:miter;stroke-miterlimit:10.43299961000000000;stroke-opacity:1;stroke-dasharray:none;stroke-dashoffset:0"
           word-spacing="normal"
           letter-spacing="normal"
           font-size-adjust="none"
           font-stretch="normal"
           font-weight="normal"
           font-variant="normal"
           font-style="normal"
           stroke-miterlimit="10.433"
           xml:space="preserve"
           transform="matrix(0.57142857,0,0,-0.57142857,-100,300)"
           id="g9468"><path
             style="fill:#009ce4;fill-opacity:0.78431374;stroke-width:0"
             inkscape:connector-curvature="0"
             id="path9470"
             d="m 464.33,428.21 -6.97,-0.54 v -1.55 c 3.24,0 3.69,-0.3 3.69,-2.73 v -13.41 c 0,-2.23 -0.55,-2.23 -3.89,-2.23 v -1.55 c 1.59,0.05 4.28,0.16 5.48,0.16 1.75,0 3.49,-0.11 5.19,-0.16 v 1.55 c -3.29,0 -3.5,0.25 -3.5,2.18 z" /><path
             style="fill:#009ce4;fill-opacity:0.78431374;stroke-width:0"
             inkscape:connector-curvature="0"
             id="path9472"
             d="m 464.54,436.89 -0.01,0.14 -0.01,0.15 -0.02,0.14 -0.02,0.14 -0.03,0.13 -0.04,0.13 -0.04,0.13 -0.05,0.12 -0.06,0.12 -0.06,0.12 -0.06,0.11 -0.07,0.1 -0.08,0.1 -0.08,0.1 -0.08,0.1 -0.09,0.08 -0.1,0.09 -0.09,0.08 -0.1,0.07 -0.11,0.07 -0.11,0.07 -0.11,0.06 -0.11,0.05 -0.12,0.05 -0.11,0.04 -0.13,0.04 -0.12,0.03 -0.12,0.03 -0.13,0.02 -0.13,0.01 -0.13,0.01 -0.13,0.01 c -1.54,0 -2.64,-1.35 -2.64,-2.64 0,-1.35 1.1,-2.64 2.64,-2.64 1.4,0 2.65,1.04 2.65,2.64 z" /><path
             style="fill:#009ce4;fill-opacity:0.78431374;stroke-width:0"
             inkscape:connector-curvature="0"
             id="path9474"
             d="m 474.8,423.34 v -13.36 c 0,-2.23 -0.55,-2.23 -3.89,-2.23 v -1.55 c 1.75,0.05 4.28,0.16 5.63,0.16 1.29,0 3.89,-0.11 5.57,-0.16 v 1.55 c -3.32,0 -3.87,0 -3.87,2.23 v 9.17 c 0,5.19 3.53,7.97 6.72,7.97 3.14,0 3.68,-2.69 3.68,-5.53 v -11.61 c 0,-2.23 -0.54,-2.23 -3.89,-2.23 v -1.55 c 1.75,0.05 4.3,0.16 5.64,0.16 1.3,0 3.88,-0.11 5.58,-0.16 v 1.55 c -2.59,0 -3.84,0 -3.89,1.5 v 9.51 c 0,4.28 0,5.83 -1.54,7.61 -0.69,0.86 -2.35,1.84 -5.22,1.84 -3.64,0 -5.99,-2.14 -7.38,-5.21 v 5.21 l -7.03,-0.54 v -1.55 c 3.48,0 3.89,-0.34 3.89,-2.78 z" /><path
             style="fill:#009ce4;fill-opacity:0.78431374;stroke-width:0"
             inkscape:connector-curvature="0"
             id="path9476"
             d="m 515.97,408.93 v -3.28 l 7.31,0.55 v 1.55 c -3.48,0 -3.87,0.34 -3.87,2.78 v 30.25 l -7.17,-0.55 v -1.55 c 3.48,0 3.87,-0.34 3.87,-2.79 v -10.75 c -1.43,1.78 -3.58,3.07 -6.28,3.07 l 0.21,-1.09 c 1.75,0 3.84,-0.75 5.39,-2.98 0.54,-0.85 0.54,-0.96 0.54,-1.85 h 0 v -10.22 c 0,-0.89 0,-1 -0.54,-1.84 -1.5,-2.39 -3.75,-3.48 -5.89,-3.48 -2.24,0 -4.04,1.29 -5.22,3.18 -1.3,2.05 -1.46,4.89 -1.46,6.93 0,1.84 0.1,4.84 1.55,7.07 1.05,1.55 2.94,3.19 5.63,3.19 l -0.21,1.09 c -5.87,0 -11.11,-4.87 -11.11,-11.29 0,-6.33 4.89,-11.27 10.57,-11.27 3.18,0 5.43,1.69 6.68,3.28 z" /><path
             style="fill:#009ce4;fill-opacity:0.78431374;stroke-width:0"
             inkscape:connector-curvature="0"
             id="path9478"
             d="m 530.28,417.71 0.05,1.05 c 0.3,7.42 4.49,8.66 6.19,8.66 5.13,0 5.63,-6.72 5.63,-8.66 h -11.82 l -0.05,-1.05 h 13.91 c 1.09,0 1.24,0 1.24,1.05 0,4.92 -2.69,9.75 -8.91,9.75 -5.78,0 -10.37,-5.12 -10.37,-11.36 0,-6.67 5.23,-11.5 10.96,-11.5 6.08,0 8.32,5.53 8.32,6.47 0,0.5 -0.4,0.61 -0.65,0.61 -0.45,0 -0.54,-0.3 -0.65,-0.7 -1.73,-5.13 -6.22,-5.13 -6.72,-5.13 -2.5,0 -4.48,1.49 -5.63,3.33 -1.5,2.39 -1.5,5.69 -1.5,7.48 z" /><path
             style="fill:#009ce4;fill-opacity:0.78431374;stroke-width:0"
             inkscape:connector-curvature="0"
             id="path9480"
             d="m 561.13,417.9 0.28,0.36 0.3,0.37 0.3,0.38 0.3,0.39 0.61,0.78 0.31,0.38 0.31,0.39 0.3,0.37 0.29,0.37 0.29,0.35 0.28,0.34 0.14,0.16 0.13,0.16 0.13,0.16 0.13,0.15 0.13,0.14 0.12,0.14 0.11,0.13 0.12,0.12 c 1.54,1.78 3.59,2.53 5.94,2.58 v 1.55 c -1.3,-0.1 -2.8,-0.14 -4.1,-0.14 -1.48,0 -4.12,0.09 -4.78,0.14 v -1.55 c 1.05,-0.09 1.45,-0.73 1.45,-1.53 0,-0.8 -0.5,-1.45 -0.75,-1.75 l -3.09,-3.89 -3.88,5.03 c -0.45,0.5 -0.45,0.61 -0.45,0.91 0,0.75 0.75,1.18 1.73,1.23 v 1.55 c -1.28,-0.05 -4.57,-0.14 -5.37,-0.14 -1.05,0 -3.39,0.04 -4.73,0.14 v -1.55 c 3.48,0 3.54,-0.05 5.87,-3.03 l 4.94,-6.42 -4.69,-5.94 c -2.39,-2.89 -5.33,-2.98 -6.37,-2.98 v -1.55 c 1.29,0.09 2.84,0.16 4.14,0.16 1.43,0 3.53,-0.11 4.73,-0.16 v 1.55 c -1.09,0.14 -1.45,0.79 -1.45,1.54 0,1.1 1.45,2.74 4.48,6.33 l 3.8,-4.98 c 0.39,-0.55 1.05,-1.35 1.05,-1.64 0,-0.46 -0.46,-1.21 -1.8,-1.25 v -1.55 c 1.48,0.05 4.28,0.16 5.37,0.16 1.35,0 3.3,-0.07 4.78,-0.16 v 1.55 c -2.68,0 -3.57,0.09 -4.73,1.54 z" /></g>      </g>
      <g
         style="fill:#009ce4;fill-opacity:0.78431374"
         transform="matrix(1.2052732,0,0,1.2052732,293.56878,778.40354)"
         id="g9546">
        <g
           style="font-style:normal;font-variant:normal;font-weight:normal;font-stretch:normal;letter-spacing:normal;word-spacing:normal;text-anchor:start;fill:#009ce4;fill-opacity:0.78431374;stroke:#000000;stroke-linecap:butt;stroke-linejoin:miter;stroke-miterlimit:10.43299961000000000;stroke-opacity:1;stroke-dasharray:none;stroke-dashoffset:0"
           id="g9548"
           transform="matrix(0.57142857,0,0,-0.57142857,-123.5519,301.72331)"
           xml:space="preserve"
           stroke-miterlimit="10.433"
           font-style="normal"
           font-variant="normal"
           font-weight="normal"
           font-stretch="normal"
           font-size-adjust="none"
           letter-spacing="normal"
           word-spacing="normal"><path
             style="fill:#009ce4;fill-opacity:0.78431374;stroke-width:0"
             inkscape:connector-curvature="0"
             d="m 464.08,424.93 v 3.28 l -7.17,-0.54 v -1.55 c 3.55,0 3.89,-0.3 3.89,-2.48 v -23.32 c 0,-2.25 -0.55,-2.25 -3.89,-2.25 v -1.54 c 1.7,0.06 4.28,0.15 5.58,0.15 1.34,0 3.89,-0.09 5.64,-0.15 v 1.54 c -3.34,0 -3.89,0 -3.89,2.25 v 8.36 0.46 l 0.7,0.65 c -0.7,1.05 -0.7,1.1 -0.7,2.08 h 0 V 423 c 1.44,2.53 3.89,3.98 6.42,3.98 3.64,0 6.69,-4.39 6.69,-10.02 0,-6.03 -3.5,-10.21 -7.19,-10.21 -1.98,0 -3.87,1 -5.22,3.04 l -0.7,-0.65 c 0.25,-0.8 2.34,-3.49 6.12,-3.49 5.94,0 11.11,4.88 11.11,11.31 0,6.33 -4.83,11.25 -10.4,11.25 -3.89,0 -5.99,-2.18 -6.99,-3.28 z"
             id="path9550" /><path
             style="fill:#009ce4;fill-opacity:0.78431374;stroke-width:0"
             inkscape:connector-curvature="0"
             d="m 508.15,416.86 -0.02,0.59 -0.04,0.59 -0.07,0.58 -0.1,0.57 -0.12,0.56 -0.15,0.55 -0.18,0.54 -0.19,0.53 -0.23,0.51 -0.24,0.5 -0.27,0.49 -0.29,0.47 -0.31,0.46 -0.32,0.44 -0.35,0.43 -0.37,0.4 -0.38,0.39 -0.4,0.37 -0.42,0.35 -0.43,0.32 -0.45,0.31 -0.46,0.28 -0.47,0.26 -0.49,0.24 -0.5,0.21 -0.51,0.18 -0.52,0.16 -0.53,0.13 -0.54,0.11 -0.55,0.07 -0.55,0.05 -0.57,0.01 -0.04,-1.09 c 2.18,0 4.32,-1.1 5.62,-3.24 1.3,-2.14 1.3,-5.03 1.3,-6.92 0,-1.8 0,-4.48 -1.1,-6.67 -1.09,-2.25 -3.28,-3.69 -5.78,-3.69 h 0 c -2.14,0 -4.33,1.05 -5.67,3.33 -1.25,2.2 -1.25,5.23 -1.25,7.03 0,1.94 0,4.63 1.19,6.83 1.36,2.28 3.69,3.33 5.69,3.33 l 0.04,1.09 c -6.22,0 -11.06,-5.42 -11.06,-11.65 0,-6.43 5.19,-11.21 11.02,-11.21 6.03,0 11.06,4.88 11.06,11.21 z"
             id="path9552" /><path
             style="fill:#009ce4;fill-opacity:0.78431374;stroke-width:0"
             inkscape:connector-curvature="0"
             d="m 539.04,422.93 0.08,0.23 0.09,0.22 0.1,0.21 0.09,0.2 0.1,0.18 0.11,0.18 0.1,0.17 0.11,0.16 0.12,0.15 0.11,0.14 0.12,0.13 0.12,0.13 0.13,0.11 0.13,0.11 0.13,0.1 0.13,0.1 0.14,0.08 0.13,0.08 0.15,0.08 0.14,0.06 0.14,0.06 0.15,0.05 0.15,0.05 0.15,0.04 0.15,0.04 0.16,0.03 0.15,0.03 0.16,0.02 0.16,0.02 0.16,0.01 0.16,0.01 0.17,0.01 v 1.55 c -1.11,-0.1 -2.55,-0.14 -3.64,-0.14 -1.46,0 -3.69,0.09 -4.64,0.14 v -1.55 c 1.79,-0.05 2.89,-0.94 2.89,-2.39 0,-0.3 0,-0.39 -0.25,-1.05 l -4.54,-12.75 -4.93,13.91 c -0.19,0.59 -0.25,0.69 -0.25,0.94 0,1.34 1.95,1.34 2.95,1.34 v 1.55 c -1.45,-0.05 -3.98,-0.14 -5.19,-0.14 -1.5,0 -2.93,0.04 -4.43,0.14 v -1.55 c 1.84,0 2.64,-0.09 3.14,-0.73 0.25,-0.32 0.79,-1.8 1.14,-2.75 l -4.28,-12.05 -4.74,13.3 c -0.25,0.59 -0.25,0.7 -0.25,0.89 0,1.34 1.95,1.34 2.94,1.34 v 1.55 c -1.49,-0.05 -4.28,-0.14 -5.42,-0.14 -0.21,0 -2.85,0.04 -4.64,0.14 v -1.55 c 2.5,0 3.09,-0.14 3.68,-1.73 l 6.28,-17.64 c 0.25,-0.71 0.41,-1.1 1.05,-1.1 0.66,0 0.75,0.3 1,1 l 5.03,14.1 5.08,-14.14 c 0.2,-0.57 0.34,-0.96 1,-0.96 0.64,0 0.8,0.46 1,0.96 z"
             id="path9554" /><path
             style="fill:#009ce4;fill-opacity:0.78431374;stroke-width:0"
             inkscape:connector-curvature="0"
             d="m 548.28,417.71 0.05,1.05 c 0.3,7.42 4.49,8.66 6.19,8.66 5.13,0 5.63,-6.72 5.63,-8.66 h -11.82 l -0.05,-1.05 h 13.91 c 1.09,0 1.24,0 1.24,1.05 0,4.92 -2.69,9.75 -8.91,9.75 -5.78,0 -10.37,-5.12 -10.37,-11.36 0,-6.67 5.23,-11.5 10.96,-11.5 6.08,0 8.32,5.53 8.32,6.47 0,0.5 -0.4,0.61 -0.65,0.61 -0.45,0 -0.54,-0.3 -0.65,-0.7 -1.73,-5.13 -6.22,-5.13 -6.72,-5.13 -2.5,0 -4.48,1.49 -5.63,3.33 -1.5,2.39 -1.5,5.69 -1.5,7.48 z"
             id="path9556" /><path
             style="fill:#009ce4;fill-opacity:0.78431374;stroke-width:0"
             inkscape:connector-curvature="0"
             d="m 573.15,422.75 v 5.46 l -6.93,-0.54 v -1.55 c 3.49,0 3.89,-0.34 3.89,-2.78 v -13.36 c 0,-2.23 -0.54,-2.23 -3.89,-2.23 v -1.55 c 1.96,0.05 4.28,0.16 5.69,0.16 1.99,0 4.33,0 6.33,-0.16 v 1.55 h -1.05 c -3.69,0 -3.79,0.54 -3.79,2.34 v 7.67 c 0,4.92 2.09,9.36 5.88,9.36 0.35,0 0.44,0 0.55,-0.05 -0.15,-0.04 -1.15,-0.64 -1.15,-1.93 0,-1.41 1.04,-2.14 2.15,-2.14 0.89,0 2.14,0.59 2.14,2.18 0,1.6 -1.54,3.03 -3.69,3.03 -3.63,0 -5.43,-3.32 -6.13,-5.46 z"
             id="path9558" /></g>      </g>
      <g
         style="fill:#395867;fill-opacity:0.78431374"
         transform="matrix(0.69235302,0,0,0.69235302,282.40368,630.56106)"
         id="g9638">
        <g
           style="font-style:normal;font-variant:normal;font-weight:normal;font-stretch:normal;letter-spacing:normal;word-spacing:normal;text-anchor:start;fill:#395867;fill-opacity:0.78431374;stroke:#000000;stroke-linecap:butt;stroke-linejoin:miter;stroke-miterlimit:10.43299961000000000;stroke-opacity:1;stroke-dasharray:none;stroke-dashoffset:0"
           word-spacing="normal"
           letter-spacing="normal"
           font-size-adjust="none"
           font-stretch="normal"
           font-weight="normal"
           font-variant="normal"
           font-style="normal"
           stroke-miterlimit="10.433"
           xml:space="preserve"
           transform="matrix(0.57142857,0,0,-0.57142857,-100,420)"
           id="g9640"><path
             style="fill:#395867;fill-opacity:0.78431374;stroke-width:0"
             inkscape:connector-curvature="0"
             id="path9642"
             d="m 472.91,409.14 0.06,-0.23 0.06,-0.21 0.07,-0.21 0.07,-0.2 0.09,-0.2 0.09,-0.18 0.09,-0.18 0.1,-0.17 0.11,-0.16 0.11,-0.15 0.12,-0.15 0.12,-0.14 0.12,-0.13 0.13,-0.12 0.14,-0.12 0.14,-0.11 0.14,-0.1 0.14,-0.1 0.15,-0.09 0.15,-0.08 0.15,-0.07 0.16,-0.07 0.16,-0.06 0.16,-0.06 0.16,-0.04 0.16,-0.05 0.16,-0.03 0.16,-0.03 0.17,-0.02 0.16,-0.02 0.16,0 0.17,-0.01 c 1.84,0 2.89,1.25 3.64,2.78 0.9,1.91 1.5,4.8 1.5,4.89 0,0.5 -0.41,0.5 -0.75,0.5 -0.6,0 -0.64,-0.04 -0.96,-1.14 -0.68,-2.79 -1.64,-5.93 -3.33,-5.93 -1.29,0 -1.29,1.34 -1.29,2.04 0,0.35 0,1.14 0.34,2.53 l 3.39,13.57 c 0.21,0.68 0.21,0.79 0.21,1.04 0,1.05 -0.85,1.3 -1.35,1.3 -1.59,0 -1.95,-1.7 -2,-1.95 -0.94,2.14 -2.53,2.93 -4.12,2.93 v -1.09 c 2.18,0 3.43,-2.59 3.43,-4.69 0,-0.09 -0.06,-0.34 -0.15,-0.64 h 0 l -2.35,-9.42 c -0.39,-1.59 -3.48,-5.62 -6.21,-5.62 -2.35,0 -2.75,2.93 -2.75,4.43 0,2.49 1.54,8.32 2.43,10.41 1.25,3.05 3.55,5.53 5.6,5.53 v 1.09 c -5.53,0 -11.43,-7.56 -11.43,-14.84 0,-4.23 2.3,-7.72 6.04,-7.72 1.79,0 3.98,1.05 5.98,3.49 z" /><path
             style="fill:#395867;fill-opacity:0.78431374;stroke-width:0"
             inkscape:connector-curvature="0"
             id="path9644"
             d="m 496.05,439.53 0.01,0.01 0,0.02 0.01,0.02 0,0.02 0.01,0.02 0,0.02 0.01,0.02 0.01,0.02 0,0.02 0.01,0.03 0.01,0.04 0.01,0.05 0.02,0.05 0.01,0.05 0,0.03 0.01,0.02 0.01,0.02 0,0.02 0,0.03 0.01,0.02 0,0.02 0.01,0.02 0,0.01 0,0.02 0,0.02 0.01,0.01 0,0.01 0,0.01 c 0,0.44 -0.3,0.6 -0.71,0.6 -0.15,0 -0.64,-0.05 -0.79,-0.11 l -4.94,-0.39 c -0.59,-0.05 -1.14,-0.1 -1.14,-1.05 0,-0.55 0.5,-0.55 1.2,-0.55 2.39,0 2.49,-0.34 2.49,-0.84 0,-0.16 -0.16,-0.8 -0.16,-0.84 l -6.22,-24.93 c -0.05,-0.2 -0.3,-1.18 -0.3,-1.93 0,-2.64 1.8,-4.49 4.19,-4.49 1.89,0 2.89,1.35 3.53,2.6 0.85,1.73 1.55,4.92 1.55,5.07 0,0.5 -0.41,0.5 -0.75,0.5 -0.25,0 -0.55,0 -0.7,-0.25 l -0.35,-1.25 c -0.84,-3.48 -1.79,-5.57 -3.18,-5.57 -1.3,0 -1.3,1.34 -1.3,2.04 0,0.35 0,1.1 0.3,2.28 z" /><path
             style="fill:#395867;fill-opacity:0.78431374;stroke-width:0"
             inkscape:connector-curvature="0"
             id="path9646"
             d="m 505.99,416.01 0.41,-0.09 0.41,-0.1 0.4,-0.1 0.2,-0.06 0.19,-0.06 0.19,-0.06 0.19,-0.06 0.19,-0.07 0.18,-0.08 0.17,-0.07 0.18,-0.09 0.16,-0.09 0.16,-0.09 0.15,-0.1 0.15,-0.11 0.14,-0.12 0.13,-0.12 0.12,-0.13 0.12,-0.14 0.1,-0.15 0.1,-0.16 0.08,-0.16 0.08,-0.18 0.07,-0.19 0.05,-0.2 0.04,-0.21 0.03,-0.22 0.02,-0.11 0,-0.12 0.01,-0.12 0,-0.13 c 0,-1.59 -1.34,-5.57 -6.47,-5.57 -1.09,0 -3.98,0.25 -4.78,2.79 2.53,0.25 2.53,2.33 2.53,2.44 0,0.94 -0.64,1.59 -1.69,1.59 -1.14,0 -2.54,-0.84 -2.54,-3.09 0,-3.03 2.89,-4.83 6.43,-4.83 7.47,0 9.36,6.08 9.36,8.38 0,4.33 -3.89,5.22 -5.92,5.67 -1.4,0.3 -3.19,0.7 -3.19,2.84 0,1.19 1.05,4.58 5.04,4.58 1.34,0 3.18,-0.5 3.73,-2.44 -1.59,-0.2 -2,-1.54 -2,-2.04 0,-0.55 0.3,-1.39 1.5,-1.39 0.84,0 2.14,0.59 2.14,2.73 0,2.3 -2.05,4.23 -5.33,4.23 -5.83,0 -7.87,-4.78 -7.87,-7.37 0,-3.83 3.23,-4.53 4.64,-4.83 z" /><path
             style="fill:#395867;fill-opacity:0.78431374;stroke-width:0"
             inkscape:connector-curvature="0"
             id="path9648"
             d="m 539.43,420.04 0,0.44 -0.03,0.43 -0.04,0.43 -0.06,0.41 -0.08,0.41 -0.09,0.4 -0.1,0.38 -0.12,0.38 -0.14,0.36 -0.15,0.36 -0.17,0.34 -0.17,0.33 -0.2,0.32 -0.2,0.3 -0.22,0.3 -0.24,0.27 -0.24,0.27 -0.26,0.25 -0.27,0.24 -0.28,0.22 -0.3,0.2 -0.3,0.19 -0.32,0.18 -0.33,0.15 -0.34,0.14 -0.34,0.13 -0.36,0.1 -0.37,0.09 -0.37,0.07 -0.39,0.05 -0.39,0.02 -0.41,0.01 c -6.17,0 -12.59,-7.06 -12.59,-14.34 0,-5.12 3.14,-8.22 7.26,-8.22 v 1.1 c -1.93,0 -3.78,1.54 -3.78,5.12 0,2.5 1.3,8.03 2.89,10.72 1.85,3.05 4.24,4.53 6.17,4.53 2.46,0 3.85,-2.19 3.85,-5.12 0,-2.14 -1.1,-7.29 -2.69,-10.27 -1.45,-2.73 -3.98,-4.98 -6.44,-4.98 h 0 v -1.1 c 6.19,0 12.61,7.08 12.61,14.39 z" /><path
             style="fill:#395867;fill-opacity:0.78431374;stroke-width:0"
             inkscape:connector-curvature="0"
             id="path9650"
             d="m 572.48,439.53 0.01,0.01 0,0.02 0.01,0.02 0,0.02 0.01,0.02 0.01,0.02 0,0.02 0.01,0.02 0,0.02 0.01,0.03 0.01,0.04 0.02,0.05 0.01,0.05 0.01,0.05 0.01,0.03 0,0.02 0.01,0.02 0,0.02 0.01,0.03 0,0.02 0.01,0.02 0,0.02 0,0.01 0.01,0.02 0,0.02 0,0.01 0,0.01 0,0.01 c 0,0.44 -0.3,0.6 -0.7,0.6 -0.16,0 -0.64,-0.05 -0.8,-0.11 l -4.94,-0.39 c -0.59,-0.05 -1.14,-0.1 -1.14,-1.05 0,-0.55 0.5,-0.55 1.21,-0.55 2.39,0 2.48,-0.34 2.48,-0.84 0,-0.16 -0.16,-0.8 -0.16,-0.84 l -7.36,-29.41 c -0.06,-0.09 -0.1,-0.55 -0.1,-0.64 0,-0.55 0.45,-1.3 1.39,-1.3 1.5,0 1.84,1.39 1.95,1.85 l 2.53,10.11 c 1.84,-0.25 5.03,-1.3 5.03,-4.19 0,-0.35 0,-0.55 -0.14,-1.24 -0.2,-0.86 -0.2,-1.2 -0.2,-1.7 0,-3.58 2.34,-4.83 4.19,-4.83 2.18,0 3.28,1.64 3.82,2.6 1.11,1.89 1.8,4.92 1.8,5.07 0,0.5 -0.39,0.5 -0.75,0.5 -0.59,0 -0.64,-0.04 -0.94,-1.14 -0.65,-2.54 -1.59,-5.93 -3.78,-5.93 -1.36,0 -1.45,1.14 -1.45,2.14 0,1.15 0.34,2.54 0.4,2.79 0.25,1.05 0.25,1.1 0.25,1.74 0,3.39 -3.5,4.73 -6.64,5.19 1.16,0.7 2.21,1.75 3.55,3.28 2.59,2.95 4.53,5.23 7.02,5.23 0.95,0 1.29,-0.55 1.34,-0.59 -2.08,-0.35 -2.33,-2.1 -2.33,-2.49 0,-0.65 0.44,-1.61 1.74,-1.61 1.09,0 2.5,0.91 2.5,2.8 0,1.3 -0.91,2.98 -3.14,2.98 -2.64,0 -4.79,-2.09 -6.49,-4.07 -2.83,-3.3 -3.62,-4.1 -5.37,-4.94 z" /><path
             style="fill:#395867;fill-opacity:0.78431374;stroke-width:0"
             inkscape:connector-curvature="0"
             id="path9652"
             d="m 591.76,414.92 0.1,0.41 0.1,0.4 0.1,0.4 0.1,0.41 0.1,0.4 0.1,0.4 0.1,0.4 0.1,0.41 c 0.66,2.55 0.66,2.6 1.5,4.05 0.7,1.19 2.94,4.92 6.73,4.92 2.19,0 2.28,-2.23 2.28,-3.28 0,-3.09 -2.18,-9.02 -2.89,-11.02 -0.64,-1.68 -0.79,-2.14 -0.79,-3.18 0,-2.19 1.4,-3.99 3.79,-3.99 4.63,0 6.33,7.42 6.33,7.67 0,0.5 -0.41,0.5 -0.75,0.5 -0.66,0 -0.66,-0.11 -0.86,-0.84 -0.39,-1.34 -1.73,-6.23 -4.62,-6.23 -1.05,0 -1.1,0.75 -1.1,1.45 0,1.23 0.5,2.53 0.89,3.73 1,2.64 3.05,8.22 3.05,11.11 0,4.08 -2.75,5.17 -5.19,5.17 -4.08,0 -6.46,-2.98 -7.12,-3.93 -0.34,2.45 -2.05,3.93 -4.19,3.93 -1.8,0 -2.78,-1.14 -3.58,-2.64 -0.95,-1.98 -1.59,-4.92 -1.59,-5.03 0,-0.5 0.5,-0.5 0.73,-0.5 0.66,0 0.71,0.07 0.96,1.16 0.89,3.48 1.84,5.92 3.39,5.92 1.29,0 1.29,-1.44 1.29,-1.98 0,-0.8 -0.15,-1.75 -0.35,-2.55 l -3.74,-14.95 c -0.09,-0.3 -0.14,-0.55 -0.14,-0.69 0,-0.55 0.39,-1.3 1.39,-1.3 0.59,0 1.45,0.35 1.8,1.3 z" /><path
             style="fill:#395867;fill-opacity:0.78431374;stroke-width:0"
             inkscape:connector-curvature="0"
             id="path9654"
             d="m 633.63,420.04 -0.01,0.44 -0.03,0.43 -0.04,0.43 -0.06,0.41 -0.07,0.41 -0.09,0.4 -0.11,0.38 -0.12,0.38 -0.14,0.36 -0.15,0.36 -0.16,0.34 -0.18,0.33 -0.2,0.32 -0.2,0.3 -0.22,0.3 -0.24,0.27 -0.24,0.27 -0.26,0.25 -0.27,0.24 -0.28,0.22 -0.3,0.2 -0.3,0.19 -0.32,0.18 -0.33,0.15 -0.33,0.14 -0.35,0.13 -0.36,0.1 -0.37,0.09 -0.37,0.07 -0.39,0.05 -0.39,0.02 -0.41,0.01 c -6.17,0 -12.59,-7.06 -12.59,-14.34 0,-5.12 3.14,-8.22 7.27,-8.22 v 1.1 c -1.94,0 -3.79,1.54 -3.79,5.12 0,2.5 1.3,8.03 2.9,10.72 1.84,3.05 4.23,4.53 6.17,4.53 2.45,0 3.84,-2.19 3.84,-5.12 0,-2.14 -1.09,-7.29 -2.69,-10.27 -1.45,-2.73 -3.98,-4.98 -6.43,-4.98 h 0 v -1.1 c 6.18,0 12.61,7.08 12.61,14.39 z" /><path
             style="fill:#395867;fill-opacity:0.78431374;stroke-width:0"
             inkscape:connector-curvature="0"
             id="path9656"
             d="m 652.64,414.57 -0.03,-0.13 -0.03,-0.13 -0.03,-0.12 -0.03,-0.13 -0.03,-0.12 -0.02,-0.12 -0.02,-0.12 -0.02,-0.11 -0.02,-0.12 -0.02,-0.11 -0.02,-0.11 -0.02,-0.11 -0.01,-0.1 -0.01,-0.11 -0.02,-0.1 -0.01,-0.1 -0.02,-0.19 -0.01,-0.18 -0.01,-0.18 -0.01,-0.16 -0.01,-0.16 0,-0.15 -0.01,-0.14 0,-0.14 c 0,-0.54 -1.54,-4.68 -4.18,-4.68 -3.49,0 -3.49,3.68 -3.49,4.32 0,2.71 1.3,6.39 2.85,10.47 0.34,0.96 0.59,1.69 0.59,2.64 0,2.5 -1.64,4.03 -3.78,4.03 -4.64,0 -6.38,-7.37 -6.38,-7.67 0,-0.5 0.5,-0.5 0.74,-0.5 0.65,0 0.7,0.11 0.9,0.8 0.4,1.55 1.74,6.28 4.63,6.28 0.55,0 1.11,-0.14 1.11,-1.44 0,-1.2 -0.5,-2.54 -1.2,-4.48 -2.49,-6.78 -2.49,-8.08 -2.49,-9.42 0,-1.69 0.39,-3.39 1.69,-4.58 1.59,-1.41 3.84,-1.55 4.69,-1.55 1.59,0 3.32,0.64 4.82,3.19 0.75,-1.84 2.74,-3.19 5.69,-3.19 2.99,0 5.08,2.05 6.56,5.58 1.5,3.39 3.44,11.06 3.44,13.7 0,1.75 -0.59,3.28 -2.03,3.28 -1.16,0 -2.39,-1.14 -2.39,-2.28 0,-0.65 0.34,-1 0.64,-1.34 1.2,-1.3 1.34,-2.89 1.34,-3.94 0,-2 -1.59,-7.23 -2.43,-9.26 -1.1,-2.6 -2.69,-4.64 -4.99,-4.64 -2.48,0 -3.28,2.04 -3.28,4.14 0,0.43 0.05,1.64 0.6,3.82 l 2.09,8.38 c 0.3,1.09 0.8,3.09 0.8,3.28 0,0.55 -0.41,1.3 -1.39,1.3 -1.46,0 -1.8,-1.35 -1.91,-1.74 z" /><path
             style="fill:#395867;fill-opacity:0.78431374;stroke-width:0"
             inkscape:connector-curvature="0"
             id="path9658"
             d="m 678.27,414.92 0.1,0.41 0.1,0.4 0.1,0.4 0.1,0.41 0.1,0.4 0.11,0.4 0.09,0.4 0.1,0.41 c 0.66,2.55 0.66,2.6 1.5,4.05 0.7,1.19 2.94,4.92 6.73,4.92 2.19,0 2.29,-2.23 2.29,-3.28 0,-3.09 -2.19,-9.02 -2.89,-11.02 -0.65,-1.68 -0.8,-2.14 -0.8,-3.18 0,-2.19 1.4,-3.99 3.8,-3.99 4.62,0 6.32,7.42 6.32,7.67 0,0.5 -0.4,0.5 -0.75,0.5 -0.65,0 -0.65,-0.11 -0.86,-0.84 -0.39,-1.34 -1.73,-6.23 -4.62,-6.23 -1.05,0 -1.09,0.75 -1.09,1.45 0,1.23 0.5,2.53 0.89,3.73 1,2.64 3.04,8.22 3.04,11.11 0,4.08 -2.75,5.17 -5.18,5.17 -4.08,0 -6.47,-2.98 -7.13,-3.93 -0.34,2.45 -2.05,3.93 -4.19,3.93 -1.79,0 -2.78,-1.14 -3.58,-2.64 -0.95,-1.98 -1.59,-4.92 -1.59,-5.03 0,-0.5 0.5,-0.5 0.74,-0.5 0.65,0 0.7,0.07 0.95,1.16 0.89,3.48 1.84,5.92 3.39,5.92 1.3,0 1.3,-1.44 1.3,-1.98 0,-0.8 -0.16,-1.75 -0.36,-2.55 l -3.74,-14.95 c -0.09,-0.3 -0.14,-0.55 -0.14,-0.69 0,-0.55 0.39,-1.3 1.39,-1.3 0.6,0 1.46,0.35 1.8,1.3 z" /><path
             style="fill:#395867;fill-opacity:0.78431374;stroke-width:0"
             inkscape:connector-curvature="0"
             id="path9660"
             d="m 730.05,409.14 0.06,-0.23 0.06,-0.21 0.07,-0.21 0.07,-0.2 0.09,-0.2 0.09,-0.18 0.09,-0.18 0.1,-0.17 0.11,-0.16 0.11,-0.15 0.12,-0.15 0.12,-0.14 0.13,-0.13 0.13,-0.12 0.13,-0.12 0.14,-0.11 0.14,-0.1 0.14,-0.1 0.15,-0.09 0.15,-0.08 0.16,-0.07 0.15,-0.07 0.16,-0.06 0.16,-0.06 0.16,-0.04 0.16,-0.05 0.16,-0.03 0.16,-0.03 0.17,-0.02 0.16,-0.02 0.16,0 0.17,-0.01 c 1.84,0 2.89,1.25 3.64,2.78 0.9,1.91 1.5,4.8 1.5,4.89 0,0.5 -0.41,0.5 -0.75,0.5 -0.6,0 -0.64,-0.04 -0.96,-1.14 -0.68,-2.79 -1.64,-5.93 -3.33,-5.93 -1.29,0 -1.29,1.34 -1.29,2.04 0,0.35 0,1.14 0.34,2.53 l 3.39,13.57 c 0.21,0.68 0.21,0.79 0.21,1.04 0,1.05 -0.85,1.3 -1.35,1.3 -1.59,0 -1.95,-1.7 -2,-1.95 -0.93,2.14 -2.53,2.93 -4.12,2.93 v -1.09 c 2.19,0 3.44,-2.59 3.44,-4.69 0,-0.09 -0.07,-0.34 -0.16,-0.64 h 0 l -2.34,-9.42 c -0.4,-1.59 -3.49,-5.62 -6.22,-5.62 -2.35,0 -2.75,2.93 -2.75,4.43 0,2.49 1.54,8.32 2.43,10.41 1.25,3.05 3.55,5.53 5.6,5.53 v 1.09 c -5.53,0 -11.43,-7.56 -11.43,-14.84 0,-4.23 2.3,-7.72 6.04,-7.72 1.79,0 3.98,1.05 5.98,3.49 z" /><path
             style="fill:#395867;fill-opacity:0.78431374;stroke-width:0"
             inkscape:connector-curvature="0"
             id="path9662"
             d="m 750.41,416.01 0.41,-0.09 0.41,-0.1 0.4,-0.1 0.2,-0.06 0.19,-0.06 0.2,-0.06 0.19,-0.06 0.18,-0.07 0.18,-0.08 0.18,-0.07 0.17,-0.09 0.16,-0.09 0.16,-0.09 0.15,-0.1 0.15,-0.11 0.14,-0.12 0.13,-0.12 0.12,-0.13 0.12,-0.14 0.1,-0.15 0.1,-0.16 0.09,-0.16 0.07,-0.18 0.07,-0.19 0.05,-0.2 0.04,-0.21 0.04,-0.22 0.01,-0.11 0.01,-0.12 0,-0.12 0,-0.13 c 0,-1.59 -1.34,-5.57 -6.47,-5.57 -1.09,0 -3.98,0.25 -4.78,2.79 2.53,0.25 2.53,2.33 2.53,2.44 0,0.94 -0.64,1.59 -1.68,1.59 -1.15,0 -2.55,-0.84 -2.55,-3.09 0,-3.03 2.89,-4.83 6.44,-4.83 7.46,0 9.36,6.08 9.36,8.38 0,4.33 -3.9,5.22 -5.93,5.67 -1.4,0.3 -3.18,0.7 -3.18,2.84 0,1.19 1.04,4.58 5.03,4.58 1.34,0 3.18,-0.5 3.73,-2.44 -1.59,-0.2 -2,-1.54 -2,-2.04 0,-0.55 0.3,-1.39 1.5,-1.39 0.85,0 2.14,0.59 2.14,2.73 0,2.3 -2.04,4.23 -5.32,4.23 -5.83,0 -7.88,-4.78 -7.88,-7.37 0,-3.83 3.23,-4.53 4.64,-4.83 z" /><path
             style="fill:#395867;fill-opacity:0.78431374;stroke-width:0"
             inkscape:connector-curvature="0"
             id="path9664"
             d="m 789.33,426.12 h 4.23 c 0.85,0 1.39,0 1.39,0.95 0,0.6 -0.43,0.6 -1.23,0.6 h -3.99 l 1.85,7.37 c 0.19,0.71 0.19,0.8 0.19,1.05 0,1.05 -0.85,1.3 -1.35,1.3 -1.25,0 -1.73,-1.05 -1.94,-1.8 l -1.95,-7.92 h -4.23 c -0.85,0 -1.39,0 -1.39,-0.94 0,-0.61 0.45,-0.61 1.25,-0.61 h 3.98 l -3.59,-14.3 c -0.05,-0.18 -0.25,-0.98 -0.25,-1.68 0,-2.5 1.65,-4.49 4.23,-4.49 5.05,0 7.58,7.42 7.58,7.67 0,0.5 -0.39,0.5 -0.75,0.5 -0.59,0 -0.59,-0.04 -0.98,-0.95 -0.91,-2.39 -2.9,-6.12 -5.74,-6.12 -1.34,0 -1.34,1.25 -1.34,2.04 0,0.35 0,1.14 0.34,2.53 z" /><path
             style="fill:#395867;fill-opacity:0.78431374;stroke-width:0"
             inkscape:connector-curvature="0"
             id="path9666"
             d="m 808.03,439.53 0,0.01 0.01,0.02 0,0.02 0.01,0.02 0,0.02 0.01,0.02 0.01,0.02 0,0.02 0.01,0.02 0,0.03 0.02,0.04 0.01,0.05 0.01,0.05 0.02,0.05 0,0.03 0.01,0.02 0,0.02 0.01,0.02 0,0.03 0.01,0.02 0,0.02 0,0.02 0.01,0.01 0,0.02 0,0.02 0,0.01 0,0.01 0,0.01 c 0,0.44 -0.29,0.6 -0.7,0.6 -0.16,0 -0.64,-0.05 -0.8,-0.11 l -4.93,-0.39 c -0.6,-0.05 -1.15,-0.1 -1.15,-1.05 0,-0.55 0.5,-0.55 1.21,-0.55 2.39,0 2.48,-0.34 2.48,-0.84 0,-0.16 -0.15,-0.8 -0.15,-0.84 l -7.36,-29.41 c -0.06,-0.09 -0.11,-0.55 -0.11,-0.64 0,-0.55 0.45,-1.3 1.39,-1.3 1.04,0 1.7,0.85 1.84,1.39 0.2,0.75 1.8,7.24 2.16,8.63 0.23,1.09 0.54,2.14 0.79,3.23 0.44,1.8 0.49,1.89 1.4,3.49 1,1.59 3.14,4.73 6.62,4.73 2.19,0 2.3,-2.23 2.3,-3.28 0,-3.09 -2.2,-9.02 -2.89,-11.02 -0.66,-1.68 -0.8,-2.14 -0.8,-3.18 0,-2.19 1.39,-3.99 3.78,-3.99 4.63,0 6.33,7.42 6.33,7.67 0,0.5 -0.41,0.5 -0.75,0.5 -0.64,0 -0.64,-0.11 -0.84,-0.84 -0.41,-1.34 -1.75,-6.23 -4.65,-6.23 -1.04,0 -1.09,0.75 -1.09,1.45 0,1.23 0.5,2.53 0.91,3.73 0.98,2.64 3.03,8.22 3.03,11.11 0,4.08 -2.73,5.17 -5.19,5.17 -3.33,0 -5.08,-1.73 -6.62,-3.23 z" /><path
             style="fill:#395867;fill-opacity:0.78431374;stroke-width:0"
             inkscape:connector-curvature="0"
             id="path9668"
             d="m 830.28,417.71 0.14,0.01 0.16,0 0.16,0 0.18,0 0.18,0.01 0.2,0 0.19,0.01 0.21,0.01 0.21,0.01 0.22,0.02 0.23,0.01 0.23,0.02 0.47,0.04 0.49,0.05 0.5,0.07 0.51,0.07 0.5,0.09 0.51,0.11 0.5,0.11 0.25,0.07 0.24,0.07 0.24,0.07 0.24,0.08 0.23,0.08 0.23,0.09 c 3.93,1.59 3.93,4.83 3.93,5.17 0,2.3 -1.84,4.23 -5.03,4.23 v -1.09 c 2,0 3.14,-1.34 3.14,-3.03 0,-5.28 -8.22,-5.28 -9.86,-5.28 h -1.04 c 2.14,8.17 7.26,8.31 7.76,8.31 v 1.09 c -5.23,0 -12.36,-5.03 -12.36,-13.84 0,-4.48 2.41,-8.72 7.13,-8.72 6.39,0 10.51,4.99 10.51,5.74 0,0.25 -0.39,0.79 -0.79,0.79 -0.21,0 -0.25,-0.06 -0.64,-0.54 -3.69,-4.69 -8.13,-4.89 -8.97,-4.89 -3.24,0 -3.78,3.53 -3.78,5.48 0,1.89 0.48,4.13 0.84,5.48 z" /></g>      </g>
      <g
         style="fill:#395867;fill-opacity:0.78431374"
         transform="matrix(0.69235302,0,0,0.69235302,371.03278,697.64157)"
         id="g9780">
        <g
           style="font-style:normal;font-variant:normal;font-weight:normal;font-stretch:normal;letter-spacing:normal;word-spacing:normal;text-anchor:start;fill:#395867;fill-opacity:0.78431374;stroke:#000000;stroke-linecap:butt;stroke-linejoin:miter;stroke-miterlimit:10.43299961000000000;stroke-opacity:1;stroke-dasharray:none;stroke-dashoffset:0"
           id="g9782"
           transform="matrix(0.57142857,0,0,-0.57142857,-100,420)"
           xml:space="preserve"
           stroke-miterlimit="10.433"
           font-style="normal"
           font-variant="normal"
           font-weight="normal"
           font-stretch="normal"
           font-size-adjust="none"
           letter-spacing="normal"
           word-spacing="normal"><path
             style="fill:#395867;fill-opacity:0.78431374;stroke-width:0"
             inkscape:connector-curvature="0"
             d="m 472.91,409.14 0.06,-0.23 0.06,-0.21 0.07,-0.21 0.07,-0.2 0.09,-0.2 0.09,-0.18 0.09,-0.18 0.1,-0.17 0.11,-0.16 0.11,-0.15 0.12,-0.15 0.12,-0.14 0.12,-0.13 0.13,-0.12 0.14,-0.12 0.14,-0.11 0.14,-0.1 0.14,-0.1 0.15,-0.09 0.15,-0.08 0.15,-0.07 0.16,-0.07 0.16,-0.06 0.16,-0.06 0.16,-0.04 0.16,-0.05 0.16,-0.03 0.16,-0.03 0.17,-0.02 0.16,-0.02 0.16,0 0.17,-0.01 c 1.84,0 2.89,1.25 3.64,2.78 0.9,1.91 1.5,4.8 1.5,4.89 0,0.5 -0.41,0.5 -0.75,0.5 -0.6,0 -0.64,-0.04 -0.96,-1.14 -0.68,-2.79 -1.64,-5.93 -3.33,-5.93 -1.29,0 -1.29,1.34 -1.29,2.04 0,0.35 0,1.14 0.34,2.53 l 3.39,13.57 c 0.21,0.68 0.21,0.79 0.21,1.04 0,1.05 -0.85,1.3 -1.35,1.3 -1.59,0 -1.95,-1.7 -2,-1.95 -0.94,2.14 -2.53,2.93 -4.12,2.93 v -1.09 c 2.18,0 3.43,-2.59 3.43,-4.69 0,-0.09 -0.06,-0.34 -0.15,-0.64 h 0 l -2.35,-9.42 c -0.39,-1.59 -3.48,-5.62 -6.21,-5.62 -2.35,0 -2.75,2.93 -2.75,4.43 0,2.49 1.54,8.32 2.43,10.41 1.25,3.05 3.55,5.53 5.6,5.53 v 1.09 c -5.53,0 -11.43,-7.56 -11.43,-14.84 0,-4.23 2.3,-7.72 6.04,-7.72 1.79,0 3.98,1.05 5.98,3.49 z"
             id="path9784" /><path
             style="fill:#395867;fill-opacity:0.78431374;stroke-width:0"
             inkscape:connector-curvature="0"
             d="m 492.41,414.92 0.1,0.41 0.09,0.4 0.11,0.4 0.1,0.41 0.1,0.4 0.1,0.4 0.1,0.4 0.1,0.41 c 0.65,2.55 0.65,2.6 1.5,4.05 0.7,1.19 2.93,4.92 6.73,4.92 2.19,0 2.28,-2.23 2.28,-3.28 0,-3.09 -2.18,-9.02 -2.89,-11.02 -0.64,-1.68 -0.79,-2.14 -0.79,-3.18 0,-2.19 1.4,-3.99 3.79,-3.99 4.63,0 6.33,7.42 6.33,7.67 0,0.5 -0.41,0.5 -0.75,0.5 -0.66,0 -0.66,-0.11 -0.86,-0.84 -0.39,-1.34 -1.73,-6.23 -4.62,-6.23 -1.05,0 -1.1,0.75 -1.1,1.45 0,1.23 0.5,2.53 0.89,3.73 1,2.64 3.05,8.22 3.05,11.11 0,4.08 -2.75,5.17 -5.19,5.17 -4.08,0 -6.47,-2.98 -7.12,-3.93 -0.35,2.45 -2.05,3.93 -4.19,3.93 -1.8,0 -2.78,-1.14 -3.58,-2.64 -0.95,-1.98 -1.59,-4.92 -1.59,-5.03 0,-0.5 0.5,-0.5 0.73,-0.5 0.66,0 0.71,0.07 0.96,1.16 0.89,3.48 1.84,5.92 3.39,5.92 1.29,0 1.29,-1.44 1.29,-1.98 0,-0.8 -0.15,-1.75 -0.36,-2.55 l -3.73,-14.95 c -0.09,-0.3 -0.14,-0.55 -0.14,-0.69 0,-0.55 0.39,-1.3 1.39,-1.3 0.59,0 1.45,0.35 1.8,1.3 z"
             id="path9786" /><path
             style="fill:#395867;fill-opacity:0.78431374;stroke-width:0"
             inkscape:connector-curvature="0"
             d="m 536.66,439.53 0.01,0.01 0,0.02 0.01,0.02 0,0.02 0.01,0.02 0.01,0.02 0,0.02 0.01,0.02 0,0.02 0.01,0.03 0.01,0.04 0.02,0.05 0.01,0.05 0.01,0.05 0.01,0.03 0,0.02 0.01,0.02 0,0.02 0.01,0.03 0,0.02 0.01,0.02 0,0.02 0,0.01 0.01,0.02 0,0.02 0,0.01 0,0.01 0,0.01 c 0,0.44 -0.31,0.6 -0.7,0.6 -0.16,0 -0.64,-0.05 -0.8,-0.11 l -4.94,-0.39 c -0.59,-0.05 -1.14,-0.1 -1.14,-1.05 0,-0.55 0.5,-0.55 1.19,-0.55 2.41,0 2.5,-0.34 2.5,-0.84 0,-0.16 -0.16,-0.8 -0.16,-0.84 l -2.89,-11.68 c -0.73,1.55 -2.09,2.89 -4.17,2.89 v -1.09 c 0.39,0 1.53,-0.05 2.44,-1.44 0.5,-0.79 1,-2.25 1,-3.18 0,-0.16 -0.06,-0.36 -0.16,-0.66 l -2.39,-9.56 c -0.4,-1.55 -3.44,-5.53 -6.17,-5.53 -2.34,0 -2.75,2.93 -2.75,4.43 0,2.49 1.55,8.32 2.44,10.41 1.25,3.05 3.54,5.53 5.59,5.53 v 1.09 c -5.53,0 -11.42,-7.56 -11.42,-14.84 0,-4.23 2.3,-7.72 6.03,-7.72 1.8,0 3.98,1.05 5.98,3.49 0.55,-2.44 2.4,-3.49 4.13,-3.49 1.84,0 2.89,1.25 3.64,2.78 0.91,1.91 1.5,4.8 1.5,4.89 0,0.5 -0.41,0.5 -0.75,0.5 -0.59,0 -0.64,-0.04 -0.95,-1.14 -0.69,-2.79 -1.64,-5.93 -3.33,-5.93 -1.3,0 -1.3,1.34 -1.3,2.04 0,0.35 0,1.1 0.3,2.28 z"
             id="path9788" /><path
             style="fill:#395867;fill-opacity:0.78431374;stroke-width:0"
             inkscape:connector-curvature="0"
             d="m 565.3,426.12 h 4.24 c 0.84,0 1.39,0 1.39,0.95 0,0.6 -0.44,0.6 -1.23,0.6 h -3.99 l 1.84,7.37 c 0.19,0.71 0.19,0.8 0.19,1.05 0,1.05 -0.84,1.3 -1.34,1.3 -1.25,0 -1.74,-1.05 -1.94,-1.8 l -1.95,-7.92 h -4.24 c -0.84,0 -1.39,0 -1.39,-0.94 0,-0.61 0.46,-0.61 1.25,-0.61 h 3.99 l -3.6,-14.3 c -0.04,-0.18 -0.25,-0.98 -0.25,-1.68 0,-2.5 1.66,-4.49 4.24,-4.49 5.04,0 7.58,7.42 7.58,7.67 0,0.5 -0.39,0.5 -0.75,0.5 -0.6,0 -0.6,-0.04 -0.99,-0.95 -0.9,-2.39 -2.89,-6.12 -5.73,-6.12 -1.35,0 -1.35,1.25 -1.35,2.04 0,0.35 0,1.14 0.35,2.53 z"
             id="path9790" /><path
             style="fill:#395867;fill-opacity:0.78431374;stroke-width:0"
             inkscape:connector-curvature="0"
             d="m 584,439.53 0.01,0.01 0,0.02 0.01,0.02 0,0.02 0.01,0.02 0.01,0.02 0,0.02 0.01,0.02 0,0.02 0.01,0.03 0.01,0.04 0.02,0.05 0.01,0.05 0.01,0.05 0.01,0.03 0,0.02 0.01,0.02 0,0.02 0.01,0.03 0,0.02 0.01,0.02 0,0.02 0,0.01 0.01,0.02 0,0.02 0,0.01 0,0.01 0,0.01 c 0,0.44 -0.3,0.6 -0.7,0.6 -0.16,0 -0.64,-0.05 -0.8,-0.11 l -4.94,-0.39 c -0.59,-0.05 -1.14,-0.1 -1.14,-1.05 0,-0.55 0.5,-0.55 1.2,-0.55 2.4,0 2.49,-0.34 2.49,-0.84 0,-0.16 -0.16,-0.8 -0.16,-0.84 l -7.36,-29.41 c -0.06,-0.09 -0.1,-0.55 -0.1,-0.64 0,-0.55 0.45,-1.3 1.38,-1.3 1.05,0 1.71,0.85 1.85,1.39 0.2,0.75 1.8,7.24 2.15,8.63 0.24,1.09 0.55,2.14 0.8,3.23 0.44,1.8 0.49,1.89 1.39,3.49 1,1.59 3.14,4.73 6.63,4.73 2.18,0 2.3,-2.23 2.3,-3.28 0,-3.09 -2.21,-9.02 -2.9,-11.02 -0.65,-1.68 -0.79,-2.14 -0.79,-3.18 0,-2.19 1.39,-3.99 3.78,-3.99 4.62,0 6.33,7.42 6.33,7.67 0,0.5 -0.41,0.5 -0.75,0.5 -0.64,0 -0.64,-0.11 -0.85,-0.84 -0.4,-1.34 -1.75,-6.23 -4.64,-6.23 -1.05,0 -1.09,0.75 -1.09,1.45 0,1.23 0.5,2.53 0.91,3.73 0.98,2.64 3.03,8.22 3.03,11.11 0,4.08 -2.74,5.17 -5.19,5.17 -3.33,0 -5.08,-1.73 -6.63,-3.23 z"
             id="path9792" /><path
             style="fill:#395867;fill-opacity:0.78431374;stroke-width:0"
             inkscape:connector-curvature="0"
             d="m 606.25,417.71 0.15,0.01 0.16,0 0.16,0 0.18,0 0.18,0.01 0.19,0 0.2,0.01 0.21,0.01 0.21,0.01 0.22,0.02 0.23,0.01 0.23,0.02 0.47,0.04 0.49,0.05 0.5,0.07 0.5,0.07 0.51,0.09 0.51,0.11 0.5,0.11 0.24,0.07 0.25,0.07 0.24,0.07 0.23,0.08 0.24,0.08 0.22,0.09 c 3.94,1.59 3.94,4.83 3.94,5.17 0,2.3 -1.84,4.23 -5.03,4.23 v -1.09 c 2,0 3.14,-1.34 3.14,-3.03 0,-5.28 -8.22,-5.28 -9.86,-5.28 h -1.05 c 2.14,8.17 7.27,8.31 7.77,8.31 v 1.09 c -5.23,0 -12.36,-5.03 -12.36,-13.84 0,-4.48 2.41,-8.72 7.13,-8.72 6.38,0 10.51,4.99 10.51,5.74 0,0.25 -0.39,0.79 -0.8,0.79 -0.2,0 -0.25,-0.06 -0.64,-0.54 -3.69,-4.69 -8.12,-4.89 -8.97,-4.89 -3.23,0 -3.78,3.53 -3.78,5.48 0,1.89 0.49,4.13 0.85,5.48 z"
             id="path9794" /></g>      </g>
    </g>
    <path
       style="fill:none;stroke:#009ce4;stroke-width:2;stroke-linecap:round;stroke-linejoin:miter;stroke-miterlimit:4;stroke-opacity:0.78431374;stroke-dasharray:none"
       d="m 447.30392,712.24382 c -44.76291,22.01589 -16.29829,52.72788 -60.44901,75.90306"
       id="path9858"
       inkscape:connector-curvature="0"
       sodipodi:nodetypes="cc" />
    <path
       style="fill:none;stroke:#009828;stroke-width:2;stroke-linecap:butt;stroke-linejoin:miter;stroke-miterlimit:4;stroke-opacity:0.78431374;stroke-dasharray:none"
       d="m 172,974.36218 c 38,1 51,-38 51,-38"
       id="path9911"
       inkscape:connector-curvature="0"
       sodipodi:nodetypes="cc" />
  </g>
</svg>
