<?xml version="1.0" encoding="UTF-8" standalone="no"?>
<!-- Created with Inkscape (http://www.inkscape.org/) -->

<svg
   xmlns:osb="http://www.openswatchbook.org/uri/2009/osb"
   xmlns:dc="http://purl.org/dc/elements/1.1/"
   xmlns:cc="http://creativecommons.org/ns#"
   xmlns:rdf="http://www.w3.org/1999/02/22-rdf-syntax-ns#"
   xmlns:svg="http://www.w3.org/2000/svg"
   xmlns="http://www.w3.org/2000/svg"
   xmlns:sodipodi="http://sodipodi.sourceforge.net/DTD/sodipodi-0.dtd"
   xmlns:inkscape="http://www.inkscape.org/namespaces/inkscape"
   width="750"
   height="200"
   id="svg2"
   version="1.1"
   inkscape:version="0.48.4 r9939"
   sodipodi:docname="examples-radians.svg">
  <sodipodi:namedview
     id="base"
     pagecolor="#ffffff"
     bordercolor="#666666"
     borderopacity="1.0"
     inkscape:pageopacity="0.0"
     inkscape:pageshadow="2"
     inkscape:zoom="0.7"
     inkscape:cx="205.73444"
     inkscape:cy="108.86143"
     inkscape:document-units="px"
     inkscape:current-layer="layer1"
     showgrid="true"
     inkscape:snap-grids="false"
     inkscape:window-width="1600"
     inkscape:window-height="1138"
     inkscape:window-x="-8"
     inkscape:window-y="-8"
     inkscape:window-maximized="1">
    <inkscape:grid
       spacingy="10px"
       spacingx="10px"
       snapvisiblegridlinesonly="true"
       enabled="false"
       visible="true"
       empspacing="5"
       id="grid2985"
       type="xygrid" />
  </sodipodi:namedview>
  <defs
     id="defs4">
    <linearGradient
       id="secondary-color"
       osb:paint="solid">
      <stop
         style="stop-color:#4183c4;stop-opacity:1;"
         offset="0"
         id="stop3831" />
    </linearGradient>
    <linearGradient
       id="primary-color"
       osb:paint="solid">
      <stop
         style="stop-color:#704214;stop-opacity:1;"
         offset="0"
         id="stop3825" />
    </linearGradient>
    <marker
       style="overflow:visible"
       id="DotS"
       refX="0.0"
       refY="0.0"
       orient="auto"
       inkscape:stockid="DotS">
      <path
         transform="scale(0.2) translate(7.4, 1)"
         style="fill-rule:evenodd;stroke:#000000;stroke-width:1.0pt"
         d="M -2.5,-1.0 C -2.5,1.7600000 -4.7400000,4.0 -7.5,4.0 C -10.260000,4.0 -12.5,1.7600000 -12.5,-1.0 C -12.5,-3.7600000 -10.260000,-6.0 -7.5,-6.0 C -4.7400000,-6.0 -2.5,-3.7600000 -2.5,-1.0 z "
         id="path3840" />
    </marker>
    <marker
       style="overflow:visible"
       id="DotM"
       refX="0.0"
       refY="0.0"
       orient="auto"
       inkscape:stockid="DotM">
      <path
         transform="scale(0.4) translate(7.4, 1)"
         style="fill-rule:evenodd;stroke:#000000;stroke-width:1.0pt"
         d="M -2.5,-1.0 C -2.5,1.7600000 -4.7400000,4.0 -7.5,4.0 C -10.260000,4.0 -12.5,1.7600000 -12.5,-1.0 C -12.5,-3.7600000 -10.260000,-6.0 -7.5,-6.0 C -4.7400000,-6.0 -2.5,-3.7600000 -2.5,-1.0 z "
         id="path3837" />
    </marker>
  </defs>
  <metadata
     id="metadata7">
    <rdf:RDF>
      <cc:Work
         rdf:about="">
        <dc:format>image/svg+xml</dc:format>
        <dc:type
           rdf:resource="http://purl.org/dc/dcmitype/StillImage" />
      </cc:Work>
    </rdf:RDF>
  </metadata>
  <g
     transform="translate(0,-852.36218)"
     id="layer1"
     inkscape:groupmode="layer"
     inkscape:label="Layer 1">
    <g
       id="g5134"
       transform="matrix(2,0,0,2,-415.12091,34.096023)"
       style="fill:#009828;fill-opacity:1">
      <g
         word-spacing="normal"
         letter-spacing="normal"
         font-size-adjust="none"
         font-stretch="normal"
         font-weight="normal"
         font-variant="normal"
         font-style="normal"
         stroke-miterlimit="10.433"
         xml:space="preserve"
         transform="matrix(0.28571429,0,0,-0.28571429,-50,562.5)"
         id="g5136"
         style="font-style:normal;font-variant:normal;font-weight:normal;font-stretch:normal;letter-spacing:normal;word-spacing:normal;text-anchor:start;fill:#009828;fill-opacity:1;stroke:#000000;stroke-linecap:butt;stroke-linejoin:miter;stroke-miterlimit:10.43299961000000000;stroke-opacity:1;stroke-dasharray:none;stroke-dashoffset:0"><path
           id="path5138"
           d="m 1182.4,388.16 0,0.04 0,0.04 0,0.04 0,0.04 0,0.04 0,0.04 0,0.04 0,0.03 0,0.04 0,0.03 0,0.03 0,0.03 0,0.03 0,0.03 0,0.03 0,0.02 0,0.03 0,0.02 -0.1,0.05 0,0.04 0,0.04 0,0.03 0,0.03 0,0.03 -0.1,0.03 0,0.02 0,0.02 -0.1,0.02 0,0.01 0,0.01 -0.1,0.01 0,0.01 0,0 -0.1,0.01 0,0 0,0 0,0.01 -0.1,0 0,0 0,0 -0.1,0.01 0,0 0,0 -0.1,0 0,0 0,0 -0.1,0 0,0 -0.1,0 0,0 -0.1,0 c -2.2,-2.2 -5.4,-2.23 -6.8,-2.23 v -1.25 c 0.9,0 3.2,0 5.1,0.97 v -17.77 c 0,-1.16 0,-1.61 -3.5,-1.61 h -1.3 V 366 c 0.6,0.03 4.9,0.14 6.2,0.14 1.1,0 5.4,-0.11 6.2,-0.14 v 1.25 h -1.3 c -3.5,0 -3.5,0.45 -3.5,1.61 z"
           inkscape:connector-curvature="0"
           style="fill:#009828;fill-opacity:1;stroke-width:0" /><polyline
           id="polyline5140"
           points="1171,358 1190.9,358 1190.9,360.04 1171,360.04 "
           style="fill:#009828;fill-opacity:1;fill-rule:nonzero;stroke-width:0" /><path
           id="path5142"
           d="m 1188.3,335.63 h -1.2 c -0.1,-0.77 -0.4,-2.83 -0.9,-3.18 -0.3,-0.2 -2.9,-0.2 -3.4,-0.2 h -6.4 c 3.6,3.23 4.8,4.2 6.9,5.84 2.6,2.07 5,4.22 5,7.54 0,4.21 -3.7,6.79 -8.1,6.79 -4.4,0 -7.3,-3.03 -7.3,-6.23 0,-1.78 1.5,-1.96 1.9,-1.96 0.8,0 1.8,0.6 1.8,1.85 0,0.62 -0.2,1.84 -2,1.84 1,2.47 3.4,3.24 5,3.24 3.5,0 5.3,-2.71 5.3,-5.53 0,-3.04 -2.1,-5.44 -3.2,-6.69 l -8.4,-8.3 c -0.4,-0.31 -0.4,-0.39 -0.4,-1.36 h 14.4 z"
           inkscape:connector-curvature="0"
           style="fill:#009828;fill-opacity:1;stroke-width:0" /><path
           id="path5144"
           d="m 1209.8,365.02 h 5.7 c -1.7,-7.38 -2.1,-9.52 -2.1,-12.84 0,-0.75 0,-2.1 0.4,-3.8 0.5,-2.19 1,-2.49 1.8,-2.49 1,0 2,0.9 2,1.9 0,0.29 0,0.4 -0.3,1.09 -1.4,3.59 -1.4,6.83 -1.4,8.22 0,2.64 0.3,5.34 0.9,7.92 h 5.6 c 0.7,0 2.5,0 2.5,1.7 0,1.19 -1.1,1.19 -2,1.19 h -16.7 c -1.1,0 -3,0 -5.2,-2.34 -1.7,-1.94 -3,-4.24 -3,-4.49 0,-0.04 0,-0.48 0.6,-0.48 0.4,0 0.5,0.19 0.8,0.59 2.4,3.83 5.3,3.83 6.3,3.83 h 2.9 c -1.7,-6.02 -4.3,-12.05 -6.4,-16.58 -0.4,-0.75 -0.4,-0.86 -0.4,-1.2 0,-0.95 0.8,-1.35 1.4,-1.35 1.5,0 1.9,1.4 2.5,3.24 0.7,2.3 0.7,2.39 1.4,4.89 z"
           inkscape:connector-curvature="0"
           style="fill:#009828;fill-opacity:1;stroke-width:0" /><path
           id="path5146"
           d="m 1251.6,362.99 v 5.47 l -6.9,-0.55 v -1.55 c 3.5,0 3.9,-0.34 3.9,-2.78 v -13.36 c 0,-2.23 -0.5,-2.23 -3.9,-2.23 v -1.55 c 2,0.05 4.3,0.16 5.7,0.16 2,0 4.3,0 6.3,-0.16 v 1.55 h -1 c -3.7,0 -3.8,0.55 -3.8,2.34 V 358 c 0,4.93 2.1,9.36 5.9,9.36 0.3,0 0.4,0 0.5,-0.04 -0.1,-0.05 -1.1,-0.64 -1.1,-1.94 0,-1.41 1,-2.14 2.1,-2.14 0.9,0 2.2,0.59 2.2,2.19 0,1.59 -1.6,3.03 -3.7,3.03 -3.7,0 -5.5,-3.33 -6.2,-5.47 z"
           inkscape:connector-curvature="0"
           style="fill:#009828;fill-opacity:1;stroke-width:0" /><path
           id="path5148"
           d="m 1279.5,350.22 0,-0.18 0,-0.19 0.1,-0.19 0,-0.18 0,-0.19 0.1,-0.18 0.1,-0.18 0,-0.18 0.1,-0.18 0.1,-0.17 0.1,-0.17 0.1,-0.17 0.1,-0.16 0.1,-0.16 0.1,-0.15 0.1,-0.15 0.1,-0.14 0.2,-0.14 0.1,-0.13 0.2,-0.12 0.1,-0.11 0.2,-0.11 0.1,-0.1 0.2,-0.09 0.2,-0.08 0.1,-0.07 0.2,-0.06 0.2,-0.05 0.2,-0.04 0.2,-0.03 0.2,-0.02 0.3,-0.01 c 1,0 4,0.71 4,4.74 v 2.78 h -1.2 v -2.78 c 0,-2.89 -1.3,-3.19 -1.8,-3.19 -1.6,0 -1.8,2.24 -1.8,2.49 v 9.96 c 0,2.1 0,4.04 -1.8,5.88 -2,1.94 -4.5,2.73 -6.9,2.73 -4.1,0 -7.5,-2.32 -7.5,-5.62 0,-1.49 1,-2.34 2.3,-2.34 1.4,0 2.3,1 2.3,2.29 0,0.6 -0.2,2.24 -2.6,2.3 1.4,1.73 3.8,2.28 5.4,2.28 2.5,0 5.3,-1.94 5.3,-6.37 v -1.85 -1.05 -4.98 c 0,-4.73 -3.6,-6.42 -5.8,-6.42 -2.5,0 -4.5,1.75 -4.5,4.23 0,2.74 2.1,6.88 10.3,7.17 h 0 v 1.05 c -2.5,-0.14 -6,-0.3 -9.2,-1.8 -3.7,-1.68 -4.9,-4.28 -4.9,-6.46 0,-4.04 4.8,-5.29 7.9,-5.29 3.3,0 5.6,1.99 6.6,4.33 z"
           inkscape:connector-curvature="0"
           style="fill:#009828;fill-opacity:1;stroke-width:0" /><path
           id="path5150"
           d="m 1306.8,349.18 v -3.29 l 7.3,0.55 v 1.55 c -3.5,0 -3.9,0.34 -3.9,2.78 v 30.25 l -7.2,-0.55 v -1.54 c 3.5,0 3.9,-0.35 3.9,-2.8 v -10.75 c -1.4,1.78 -3.6,3.08 -6.3,3.08 l 0.2,-1.1 c 1.8,0 3.9,-0.75 5.4,-2.98 0.6,-0.84 0.6,-0.95 0.6,-1.84 h 0 v -10.22 c 0,-0.89 0,-1 -0.6,-1.85 -1.5,-2.39 -3.7,-3.48 -5.9,-3.48 -2.2,0 -4,1.3 -5.2,3.19 -1.3,2.04 -1.4,4.89 -1.4,6.92 0,1.84 0.1,4.84 1.5,7.08 1.1,1.54 2.9,3.18 5.6,3.18 l -0.2,1.1 c -5.8,0 -11.1,-4.88 -11.1,-11.3 0,-6.33 4.9,-11.27 10.6,-11.27 3.2,0 5.4,1.69 6.7,3.29 z"
           inkscape:connector-curvature="0"
           style="fill:#009828;fill-opacity:1;stroke-width:0" /></g>    </g>
    <g
       id="g5262"
       transform="matrix(2,0,0,2,-234.60325,32.278425)"
       style="fill:#009828;fill-opacity:1">
      <g
         id="g5264"
         transform="matrix(0.28571429,0,0,-0.28571429,-50,562.5)"
         xml:space="preserve"
         stroke-miterlimit="10.433"
         font-style="normal"
         font-variant="normal"
         font-weight="normal"
         font-stretch="normal"
         font-size-adjust="none"
         letter-spacing="normal"
         word-spacing="normal"
         style="font-style:normal;font-variant:normal;font-weight:normal;font-stretch:normal;letter-spacing:normal;word-spacing:normal;text-anchor:start;fill:#009828;fill-opacity:1;stroke:#000000;stroke-linecap:butt;stroke-linejoin:miter;stroke-miterlimit:10.43299961;stroke-opacity:1;stroke-dasharray:none;stroke-dashoffset:0"><path
           d="m 1193.9,365.02 h 5.6 c -1.6,-7.38 -2.1,-9.52 -2.1,-12.84 0,-0.75 0,-2.1 0.4,-3.8 0.5,-2.19 1.1,-2.49 1.8,-2.49 1,0 2.1,0.9 2.1,1.9 0,0.29 0,0.4 -0.4,1.09 -1.4,3.59 -1.4,6.83 -1.4,8.22 0,2.64 0.4,5.34 0.9,7.92 h 5.7 c 0.6,0 2.4,0 2.4,1.7 0,1.19 -1,1.19 -2,1.19 h -16.7 c -1,0 -2.9,0 -5.1,-2.34 -1.8,-1.94 -3.1,-4.24 -3.1,-4.49 0,-0.04 0,-0.48 0.6,-0.48 0.4,0 0.5,0.19 0.8,0.59 2.5,3.83 5.4,3.83 6.3,3.83 h 2.9 c -1.6,-6.02 -4.3,-12.05 -6.4,-16.58 -0.4,-0.75 -0.4,-0.86 -0.4,-1.2 0,-0.95 0.8,-1.35 1.5,-1.35 1.5,0 1.9,1.4 2.4,3.24 0.7,2.3 0.7,2.39 1.4,4.89 z"
           id="path5266"
           inkscape:connector-curvature="0"
           style="fill:#009828;fill-opacity:1;stroke-width:0" /><path
           d="m 1235.8,362.99 v 5.47 l -6.9,-0.55 v -1.55 c 3.4,0 3.9,-0.34 3.9,-2.78 v -13.36 c 0,-2.23 -0.6,-2.23 -3.9,-2.23 v -1.55 c 1.9,0.05 4.3,0.16 5.7,0.16 1.9,0 4.3,0 6.3,-0.16 v 1.55 h -1.1 c -3.6,0 -3.8,0.55 -3.8,2.34 V 358 c 0,4.93 2.1,9.36 5.9,9.36 0.4,0 0.5,0 0.6,-0.04 -0.2,-0.05 -1.2,-0.64 -1.2,-1.94 0,-1.41 1.1,-2.14 2.2,-2.14 0.9,0 2.1,0.59 2.1,2.19 0,1.59 -1.5,3.03 -3.7,3.03 -3.6,0 -5.4,-3.33 -6.1,-5.47 z"
           id="path5268"
           inkscape:connector-curvature="0"
           style="fill:#009828;fill-opacity:1;stroke-width:0" /><path
           d="m 1263.6,350.22 0.1,-0.18 0,-0.19 0,-0.19 0.1,-0.18 0,-0.19 0.1,-0.18 0,-0.18 0.1,-0.18 0.1,-0.18 0,-0.17 0.1,-0.17 0.1,-0.17 0.1,-0.16 0.1,-0.16 0.2,-0.15 0.1,-0.15 0.1,-0.14 0.1,-0.14 0.2,-0.13 0.1,-0.12 0.2,-0.11 0.1,-0.11 0.2,-0.1 0.2,-0.09 0.1,-0.08 0.2,-0.07 0.2,-0.06 0.2,-0.05 0.2,-0.04 0.2,-0.03 0.2,-0.02 0.2,-0.01 c 1.1,0 4.1,0.71 4.1,4.74 v 2.78 h -1.3 v -2.78 c 0,-2.89 -1.2,-3.19 -1.7,-3.19 -1.7,0 -1.9,2.24 -1.9,2.49 v 9.96 c 0,2.1 0,4.04 -1.8,5.88 -1.9,1.94 -4.4,2.73 -6.8,2.73 -4.1,0 -7.5,-2.32 -7.5,-5.62 0,-1.49 1,-2.34 2.3,-2.34 1.4,0 2.3,1 2.3,2.29 0,0.6 -0.3,2.24 -2.6,2.3 1.4,1.73 3.8,2.28 5.4,2.28 2.4,0 5.3,-1.94 5.3,-6.37 v -1.85 -1.05 -4.98 c 0,-4.73 -3.6,-6.42 -5.9,-6.42 -2.4,0 -4.4,1.75 -4.4,4.23 0,2.74 2.1,6.88 10.3,7.17 h 0 v 1.05 c -2.6,-0.14 -6,-0.3 -9.2,-1.8 -3.7,-1.68 -5,-4.28 -5,-6.46 0,-4.04 4.9,-5.29 8,-5.29 3.3,0 5.6,1.99 6.5,4.33 z"
           id="path5270"
           inkscape:connector-curvature="0"
           style="fill:#009828;fill-opacity:1;stroke-width:0" /><path
           d="m 1290.9,349.18 v -3.29 l 7.3,0.55 v 1.55 c -3.4,0 -3.8,0.34 -3.8,2.78 v 30.25 l -7.2,-0.55 v -1.54 c 3.5,0 3.9,-0.35 3.9,-2.8 v -10.75 c -1.5,1.78 -3.6,3.08 -6.3,3.08 l 0.2,-1.1 c 1.7,0 3.8,-0.75 5.4,-2.98 0.5,-0.84 0.5,-0.95 0.5,-1.84 h 0 v -10.22 c 0,-0.89 0,-1 -0.5,-1.85 -1.5,-2.39 -3.8,-3.48 -5.9,-3.48 -2.2,0 -4,1.3 -5.2,3.19 -1.3,2.04 -1.5,4.89 -1.5,6.92 0,1.84 0.1,4.84 1.6,7.08 1,1.54 2.9,3.18 5.6,3.18 l -0.2,1.1 c -5.9,0 -11.1,-4.88 -11.1,-11.3 0,-6.33 4.9,-11.27 10.5,-11.27 3.2,0 5.5,1.69 6.7,3.29 z"
           id="path5272"
           inkscape:connector-curvature="0"
           style="fill:#009828;fill-opacity:1;stroke-width:0" /></g>    </g>
    <g
       id="g5396"
       transform="matrix(2,0,0,2,48.539099,50.158468)"
       style="fill:#009828;fill-opacity:1">
      <g
         word-spacing="normal"
         letter-spacing="normal"
         font-size-adjust="none"
         font-stretch="normal"
         font-weight="normal"
         font-variant="normal"
         font-style="normal"
         stroke-miterlimit="10.433"
         xml:space="preserve"
         transform="matrix(0.28571429,0,0,-0.28571429,-50,562.5)"
         id="g5398"
         style="font-style:normal;font-variant:normal;font-weight:normal;font-stretch:normal;letter-spacing:normal;word-spacing:normal;text-anchor:start;fill:#009828;fill-opacity:1;stroke:#000000;stroke-linecap:butt;stroke-linejoin:miter;stroke-miterlimit:10.43299961000000000;stroke-opacity:1;stroke-dasharray:none;stroke-dashoffset:0"><path
           id="path5400"
           d="m 1182.4,388.16 0,0.04 0,0.04 0,0.04 0,0.04 0,0.04 0,0.04 0,0.04 0,0.03 0,0.04 0,0.03 0,0.03 0,0.03 0,0.03 0,0.03 0,0.03 0,0.02 0,0.03 0,0.02 -0.1,0.05 0,0.04 0,0.04 0,0.03 0,0.03 0,0.03 -0.1,0.03 0,0.02 0,0.02 -0.1,0.02 0,0.01 0,0.01 -0.1,0.01 0,0.01 0,0 -0.1,0.01 0,0 0,0 0,0.01 -0.1,0 0,0 0,0 -0.1,0.01 0,0 0,0 -0.1,0 0,0 0,0 -0.1,0 0,0 -0.1,0 0,0 -0.1,0 c -2.2,-2.2 -5.4,-2.23 -6.8,-2.23 v -1.25 c 0.9,0 3.2,0 5.1,0.97 v -17.77 c 0,-1.16 0,-1.61 -3.5,-1.61 h -1.3 V 366 c 0.6,0.03 4.9,0.14 6.2,0.14 1.1,0 5.4,-0.11 6.2,-0.14 v 1.25 h -1.3 c -3.5,0 -3.5,0.45 -3.5,1.61 z"
           inkscape:connector-curvature="0"
           style="fill:#009828;fill-opacity:1;stroke-width:0" /><polyline
           id="polyline5402"
           points="1171,358 1190.9,358 1190.9,360.04 1171,360.04 "
           style="fill:#009828;fill-opacity:1;fill-rule:nonzero;stroke-width:0" /><path
           id="path5404"
           d="m 1180.2,340.92 0.3,0 0.2,-0.02 0.3,-0.03 0.2,-0.04 0.2,-0.05 0.3,-0.06 0.2,-0.07 0.2,-0.08 0.2,-0.1 0.2,-0.1 0.2,-0.12 0.2,-0.12 0.2,-0.14 0.2,-0.15 0.1,-0.16 0.2,-0.17 0.1,-0.18 0.2,-0.19 0.1,-0.2 0.1,-0.22 0.2,-0.22 0.1,-0.24 0.1,-0.24 0.1,-0.26 0,-0.27 0.1,-0.28 0.1,-0.29 0,-0.3 0.1,-0.31 0,-0.32 0,-0.33 0,-0.35 c 0,-4.33 -2.5,-5.61 -4.5,-5.61 -1.4,0 -4.5,0.38 -6,2.44 1.7,0.06 2.1,1.22 2.1,1.95 0,1.11 -0.9,1.91 -1.9,1.91 -1,0 -2,-0.59 -2,-2.02 0,-3.28 3.6,-5.4 7.8,-5.4 4.9,0 8.2,3.25 8.2,6.73 0,2.72 -2.2,5.44 -6,6.24 3.6,1.33 5,3.93 5,6.06 0,2.75 -3.2,4.81 -7.1,4.81 -3.9,0 -6.8,-1.89 -6.8,-4.67 0,-1.19 0.7,-1.84 1.8,-1.84 1.1,0 1.8,0.79 1.8,1.76 0,1.02 -0.7,1.75 -1.8,1.81 1.2,1.55 3.6,1.93 4.9,1.93 1.6,0 3.8,-0.77 3.8,-3.8 0,-1.47 -0.5,-3.06 -1.4,-4.14 -1.2,-1.33 -2.1,-1.41 -3.9,-1.5 -0.9,-0.08 -0.9,-0.08 -1.1,-0.11 -0.1,0 -0.4,-0.06 -0.4,-0.45 0,-0.49 0.4,-0.49 0.9,-0.49 z"
           inkscape:connector-curvature="0"
           style="fill:#009828;fill-opacity:1;stroke-width:0" /><path
           id="path5406"
           d="m 1209.8,365.02 h 5.7 c -1.7,-7.38 -2.1,-9.52 -2.1,-12.84 0,-0.75 0,-2.1 0.4,-3.8 0.5,-2.19 1,-2.49 1.8,-2.49 1,0 2,0.9 2,1.9 0,0.29 0,0.4 -0.3,1.09 -1.4,3.59 -1.4,6.83 -1.4,8.22 0,2.64 0.3,5.34 0.9,7.92 h 5.6 c 0.7,0 2.5,0 2.5,1.7 0,1.19 -1.1,1.19 -2,1.19 h -16.7 c -1.1,0 -3,0 -5.2,-2.34 -1.7,-1.94 -3,-4.24 -3,-4.49 0,-0.04 0,-0.48 0.6,-0.48 0.4,0 0.5,0.19 0.8,0.59 2.4,3.83 5.3,3.83 6.3,3.83 h 2.9 c -1.7,-6.02 -4.3,-12.05 -6.4,-16.58 -0.4,-0.75 -0.4,-0.86 -0.4,-1.2 0,-0.95 0.8,-1.35 1.4,-1.35 1.5,0 1.9,1.4 2.5,3.24 0.7,2.3 0.7,2.39 1.4,4.89 z"
           inkscape:connector-curvature="0"
           style="fill:#009828;fill-opacity:1;stroke-width:0" /><path
           id="path5408"
           d="m 1251.6,362.99 v 5.47 l -6.9,-0.55 v -1.55 c 3.5,0 3.9,-0.34 3.9,-2.78 v -13.36 c 0,-2.23 -0.5,-2.23 -3.9,-2.23 v -1.55 c 2,0.05 4.3,0.16 5.7,0.16 2,0 4.3,0 6.3,-0.16 v 1.55 h -1 c -3.7,0 -3.8,0.55 -3.8,2.34 V 358 c 0,4.93 2.1,9.36 5.9,9.36 0.3,0 0.4,0 0.5,-0.04 -0.1,-0.05 -1.1,-0.64 -1.1,-1.94 0,-1.41 1,-2.14 2.1,-2.14 0.9,0 2.2,0.59 2.2,2.19 0,1.59 -1.6,3.03 -3.7,3.03 -3.7,0 -5.5,-3.33 -6.2,-5.47 z"
           inkscape:connector-curvature="0"
           style="fill:#009828;fill-opacity:1;stroke-width:0" /><path
           id="path5410"
           d="m 1279.5,350.22 0,-0.18 0,-0.19 0.1,-0.19 0,-0.18 0,-0.19 0.1,-0.18 0.1,-0.18 0,-0.18 0.1,-0.18 0.1,-0.17 0.1,-0.17 0.1,-0.17 0.1,-0.16 0.1,-0.16 0.1,-0.15 0.1,-0.15 0.1,-0.14 0.2,-0.14 0.1,-0.13 0.2,-0.12 0.1,-0.11 0.2,-0.11 0.1,-0.1 0.2,-0.09 0.2,-0.08 0.1,-0.07 0.2,-0.06 0.2,-0.05 0.2,-0.04 0.2,-0.03 0.2,-0.02 0.3,-0.01 c 1,0 4,0.71 4,4.74 v 2.78 h -1.2 v -2.78 c 0,-2.89 -1.3,-3.19 -1.8,-3.19 -1.6,0 -1.8,2.24 -1.8,2.49 v 9.96 c 0,2.1 0,4.04 -1.8,5.88 -2,1.94 -4.5,2.73 -6.9,2.73 -4.1,0 -7.5,-2.32 -7.5,-5.62 0,-1.49 1,-2.34 2.3,-2.34 1.4,0 2.3,1 2.3,2.29 0,0.6 -0.2,2.24 -2.6,2.3 1.4,1.73 3.8,2.28 5.4,2.28 2.5,0 5.3,-1.94 5.3,-6.37 v -1.85 -1.05 -4.98 c 0,-4.73 -3.6,-6.42 -5.8,-6.42 -2.5,0 -4.5,1.75 -4.5,4.23 0,2.74 2.1,6.88 10.3,7.17 h 0 v 1.05 c -2.5,-0.14 -6,-0.3 -9.2,-1.8 -3.7,-1.68 -4.9,-4.28 -4.9,-6.46 0,-4.04 4.8,-5.29 7.9,-5.29 3.3,0 5.6,1.99 6.6,4.33 z"
           inkscape:connector-curvature="0"
           style="fill:#009828;fill-opacity:1;stroke-width:0" /><path
           id="path5412"
           d="m 1306.8,349.18 v -3.29 l 7.3,0.55 v 1.55 c -3.5,0 -3.9,0.34 -3.9,2.78 v 30.25 l -7.2,-0.55 v -1.54 c 3.5,0 3.9,-0.35 3.9,-2.8 v -10.75 c -1.4,1.78 -3.6,3.08 -6.3,3.08 l 0.2,-1.1 c 1.8,0 3.9,-0.75 5.4,-2.98 0.6,-0.84 0.6,-0.95 0.6,-1.84 h 0 v -10.22 c 0,-0.89 0,-1 -0.6,-1.85 -1.5,-2.39 -3.7,-3.48 -5.9,-3.48 -2.2,0 -4,1.3 -5.2,3.19 -1.3,2.04 -1.4,4.89 -1.4,6.92 0,1.84 0.1,4.84 1.5,7.08 1.1,1.54 2.9,3.18 5.6,3.18 l -0.2,1.1 c -5.8,0 -11.1,-4.88 -11.1,-11.3 0,-6.33 4.9,-11.27 10.6,-11.27 3.2,0 5.4,1.69 6.7,3.29 z"
           inkscape:connector-curvature="0"
           style="fill:#009828;fill-opacity:1;stroke-width:0" /></g>    </g>
    <path
       sodipodi:type="arc"
       style="fill:#10ff4f;fill-opacity:0.1648936;stroke:none"
       id="path5112"
       sodipodi:cx="400"
       sodipodi:cy="150"
       sodipodi:rx="30"
       sodipodi:ry="30"
       d="m 370.00577,149.4119 a 30,30 0 0 1 59.99397,0.71206 L 400,150 z"
       transform="translate(-30,852.36218)"
       sodipodi:start="3.1611974"
       sodipodi:end="6.2873174" />
    <path
       sodipodi:type="arc"
       style="fill:#10ff4f;fill-opacity:0.1648936;stroke:none"
       id="path5110"
       sodipodi:cx="150"
       sodipodi:cy="150"
       sodipodi:rx="30"
       sodipodi:ry="30"
       d="m 150.25001,120.00104 a 30,30 0 0 1 29.74996,30.03857 L 150,150 z"
       transform="translate(-30,852.36218)"
       sodipodi:start="4.7207226"
       sodipodi:end="6.2845058" />
    <path
       sodipodi:type="arc"
       style="fill:#10ff4f;fill-opacity:0.1648936;stroke:none"
       id="path5108"
       sodipodi:cx="600"
       sodipodi:cy="150"
       sodipodi:rx="40"
       sodipodi:ry="40"
       d="m 620.7025,115.77418 a 40,40 0 0 1 19.29749,34.19632 L 600,150 z"
       transform="translate(-30,852.36218)"
       sodipodi:start="5.2563886"
       sodipodi:end="6.2824477" />
    <path
       inkscape:connector-curvature="0"
       id="path2987"
       d="m 20,1002.3622 200,0"
       style="fill:none;stroke:#009ce4;stroke-width:2;stroke-linecap:round;stroke-linejoin:miter;stroke-miterlimit:4;stroke-opacity:1;stroke-dasharray:none" />
    <path
       inkscape:connector-curvature="0"
       id="path2989"
       d="m 120,1002.3622 0,-110.00002"
       style="fill:none;stroke:#009ce4;stroke-width:2;stroke-linecap:round;stroke-linejoin:miter;stroke-miterlimit:4;stroke-opacity:1;stroke-dasharray:none" />
    <path
       inkscape:connector-curvature="0"
       id="path2991"
       d="m 270,1002.3622 100,0 100,0"
       style="fill:none;stroke:#009ce4;stroke-width:2;stroke-linecap:round;stroke-linejoin:miter;stroke-miterlimit:4;stroke-opacity:1;stroke-dasharray:none;marker-mid:none" />
    <path
       inkscape:connector-curvature="0"
       id="path2993"
       d="m 520,1002.3622 200,0"
       style="fill:none;stroke:#009ce4;stroke-width:2;stroke-linecap:round;stroke-linejoin:miter;stroke-miterlimit:4;stroke-opacity:1;stroke-dasharray:none" />
    <path
       inkscape:connector-curvature="0"
       id="path2995"
       d="M 570,1002.3622 633.50853,892.36218"
       style="fill:none;stroke:#009ce4;stroke-width:2;stroke-linecap:round;stroke-linejoin:miter;stroke-miterlimit:4;stroke-opacity:1;stroke-dasharray:none" />
    <path
       inkscape:connector-curvature="0"
       id="path2997"
       d="m 120,982.36218 -20,0 0,20.00002"
       style="fill:none;stroke:#009ce4;stroke-width:2;stroke-linecap:round;stroke-linejoin:miter;stroke-miterlimit:4;stroke-opacity:1;stroke-dasharray:none" />
    <path
       sodipodi:open="true"
       sodipodi:end="6.2191482"
       sodipodi:start="4.9343912"
       transform="translate(-30,852.36218)"
       d="m 156.60549,120.73624 a 30,30 0 0 1 23.33302,27.34396"
       sodipodi:ry="30"
       sodipodi:rx="30"
       sodipodi:cy="150"
       sodipodi:cx="150"
       id="path2999"
       style="fill:none;stroke:#009828;stroke-width:2;stroke-linecap:round;stroke-miterlimit:4;stroke-opacity:1;stroke-dasharray:none;stroke-dashoffset:0"
       sodipodi:type="arc" />
    <path
       sodipodi:nodetypes="ccccc"
       inkscape:connector-curvature="0"
       id="path4213"
       d="m 120.04276,972.32768 11.1595,7.0271 -2.23701,-5.41887 4.68796,-4.46185 z"
       style="fill:#009828;fill-opacity:1;stroke:none" />
    <path
       sodipodi:open="true"
       sodipodi:end="6.2179884"
       sodipodi:start="3.4217402"
       transform="translate(-30,852.36218)"
       d="m 371.16956,141.70508 a 30,30 0 0 1 58.7667,6.3404"
       sodipodi:ry="30"
       sodipodi:rx="30"
       sodipodi:cy="150"
       sodipodi:cx="400"
       id="path4401"
       style="fill:none;stroke:#009828;stroke-width:2;stroke-linecap:round;stroke-miterlimit:4;stroke-opacity:1;stroke-dasharray:none;stroke-dashoffset:0"
       sodipodi:type="arc" />
    <path
       style="fill:#009828;fill-opacity:1;stroke:none"
       d="m 338.91223,1002.3926 8.00346,-10.48116 -5.59829,1.73995 -4.02159,-5.07071 z"
       id="path4589"
       inkscape:connector-curvature="0"
       sodipodi:nodetypes="ccccc" />
    <path
       sodipodi:open="true"
       sodipodi:end="6.237762"
       sodipodi:start="5.4050434"
       transform="translate(-30,852.36218)"
       d="m 625.54329,119.21785 a 40,40 0 0 1 14.41545,28.96584"
       sodipodi:ry="40"
       sodipodi:rx="40"
       sodipodi:cy="150"
       sodipodi:cx="600"
       id="path4591"
       style="fill:none;stroke:#009828;stroke-width:2;stroke-linecap:round;stroke-miterlimit:4;stroke-opacity:1;stroke-dasharray:none;stroke-dashoffset:0"
       sodipodi:type="arc" />
    <path
       sodipodi:nodetypes="ccccc"
       inkscape:connector-curvature="0"
       id="path4593"
       d="m 590.51212,967.74995 6.35601,11.55486 0.66927,-5.82411 6.26294,-1.63103 z"
       style="fill:#009828;fill-opacity:1;stroke:none" />
    <path
       transform="translate(1e-6,852.36218)"
       sodipodi:type="arc"
       style="fill:#009ce4;fill-opacity:1;fill-rule:nonzero;stroke:none"
       id="path4019"
       sodipodi:cx="370"
       sodipodi:cy="150"
       sodipodi:rx="3.3035715"
       sodipodi:ry="3.3035715"
       d="m 373.30357,150 a 3.3035715,3.3035715 0 1 1 -6.60714,0 3.3035715,3.3035715 0 1 1 6.60714,0 z" />
  </g>
</svg>
